%FSLAX45Y45*%
G04 Gerber Fmt 4.5, Leading zero omitted, Abs format (unit mm)*
G04 Created by KiCad (PCBNEW (6.0.4)) date 2022-12-31 00:33:25*
%MOMM*%
%LPD*%
G01*
G04 APERTURE LIST*
%TA.AperFunction,Profile*%
%ADD10C,0.100000*%
%TD*%
%ADD11C,0.200000*%
G04 APERTURE END LIST*
D10*
X3177900Y-3650500D02*
X4318000Y-1841500D01*
X7102900Y-3650500D02*
X7102900Y-3429000D01*
X4318000Y-1841500D02*
X7102900Y-3429000D01*
D11*
X3429519Y-4566976D02*
X3429519Y-4366976D01*
X3477138Y-4366976D01*
X3505709Y-4376500D01*
X3524757Y-4395548D01*
X3534281Y-4414595D01*
X3543805Y-4452690D01*
X3543805Y-4481262D01*
X3534281Y-4519357D01*
X3524757Y-4538405D01*
X3505709Y-4557452D01*
X3477138Y-4566976D01*
X3429519Y-4566976D01*
X3629519Y-4566976D02*
X3629519Y-4433643D01*
X3629519Y-4471738D02*
X3639043Y-4452690D01*
X3648567Y-4443167D01*
X3667614Y-4433643D01*
X3686662Y-4433643D01*
X3753328Y-4566976D02*
X3753328Y-4433643D01*
X3753328Y-4366976D02*
X3743805Y-4376500D01*
X3753328Y-4386024D01*
X3762852Y-4376500D01*
X3753328Y-4366976D01*
X3753328Y-4386024D01*
X3877138Y-4566976D02*
X3858090Y-4557452D01*
X3848567Y-4538405D01*
X3848567Y-4366976D01*
X3981900Y-4566976D02*
X3962852Y-4557452D01*
X3953328Y-4538405D01*
X3953328Y-4366976D01*
X4210471Y-4566976D02*
X4210471Y-4366976D01*
X4277138Y-4509833D01*
X4343805Y-4366976D01*
X4343805Y-4566976D01*
X4524757Y-4566976D02*
X4524757Y-4462214D01*
X4515233Y-4443167D01*
X4496186Y-4433643D01*
X4458090Y-4433643D01*
X4439043Y-4443167D01*
X4524757Y-4557452D02*
X4505710Y-4566976D01*
X4458090Y-4566976D01*
X4439043Y-4557452D01*
X4429519Y-4538405D01*
X4429519Y-4519357D01*
X4439043Y-4500310D01*
X4458090Y-4490786D01*
X4505710Y-4490786D01*
X4524757Y-4481262D01*
X4619995Y-4433643D02*
X4619995Y-4633643D01*
X4619995Y-4443167D02*
X4639043Y-4433643D01*
X4677138Y-4433643D01*
X4696186Y-4443167D01*
X4705710Y-4452690D01*
X4715233Y-4471738D01*
X4715233Y-4528881D01*
X4705710Y-4547929D01*
X4696186Y-4557452D01*
X4677138Y-4566976D01*
X4639043Y-4566976D01*
X4619995Y-4557452D01*
X4800948Y-4547929D02*
X4810471Y-4557452D01*
X4800948Y-4566976D01*
X4791424Y-4557452D01*
X4800948Y-4547929D01*
X4800948Y-4566976D01*
X4800948Y-4443167D02*
X4810471Y-4452690D01*
X4800948Y-4462214D01*
X4791424Y-4452690D01*
X4800948Y-4443167D01*
X4800948Y-4462214D01*
M02*
