%FSLAX45Y45*%
G04 Gerber Fmt 4.5, Leading zero omitted, Abs format (unit mm)*
G04 Created by KiCad (PCBNEW (6.0.4)) date 2022-12-31 00:33:25*
%MOMM*%
%LPD*%
G01*
G04 APERTURE LIST*
%TA.AperFunction,Profile*%
%ADD10C,0.100000*%
%TD*%
%ADD11C,0.200000*%
%ADD12C,0.040000*%
G04 APERTURE END LIST*
D10*
X3177900Y-3650500D02*
X4318000Y-1841500D01*
X7102900Y-3650500D02*
X7102900Y-3429000D01*
X4318000Y-1841500D02*
X7102900Y-3429000D01*
D11*
D12*
X3409000Y-3510600D02*
X3449000Y-3550600D01*
X3449000Y-3510600D02*
X3409000Y-3550600D01*
X3510600Y-3383600D02*
X3550600Y-3423600D01*
X3550600Y-3383600D02*
X3510600Y-3423600D01*
X3612200Y-3256600D02*
X3652200Y-3296600D01*
X3652200Y-3256600D02*
X3612200Y-3296600D01*
X3917000Y-3536000D02*
X3957000Y-3576000D01*
X3957000Y-3536000D02*
X3917000Y-3576000D01*
X3993200Y-3637600D02*
X4033200Y-3677600D01*
X4033200Y-3637600D02*
X3993200Y-3677600D01*
X4044000Y-3409000D02*
X4084000Y-3449000D01*
X4084000Y-3409000D02*
X4044000Y-3449000D01*
X4780600Y-3231200D02*
X4820600Y-3271200D01*
X4820600Y-3231200D02*
X4780600Y-3271200D01*
X4831400Y-3586800D02*
X4871400Y-3626800D01*
X4871400Y-3586800D02*
X4831400Y-3626800D01*
X4933000Y-2316800D02*
X4973000Y-2356800D01*
X4973000Y-2316800D02*
X4933000Y-2356800D01*
X5136200Y-3307400D02*
X5176200Y-3347400D01*
X5176200Y-3307400D02*
X5136200Y-3347400D01*
X5161600Y-3663000D02*
X5201600Y-3703000D01*
X5201600Y-3663000D02*
X5161600Y-3703000D01*
X5415600Y-2621600D02*
X5455600Y-2661600D01*
X5455600Y-2621600D02*
X5415600Y-2661600D01*
X5568000Y-3663000D02*
X5608000Y-3703000D01*
X5608000Y-3663000D02*
X5568000Y-3703000D01*
X5822000Y-2951800D02*
X5862000Y-2991800D01*
X5862000Y-2951800D02*
X5822000Y-2991800D01*
X5847400Y-3383600D02*
X5887400Y-3423600D01*
X5887400Y-3383600D02*
X5847400Y-3423600D01*
X5923600Y-3663000D02*
X5963600Y-3703000D01*
X5963600Y-3663000D02*
X5923600Y-3703000D01*
X6330000Y-3637600D02*
X6370000Y-3677600D01*
X6370000Y-3637600D02*
X6330000Y-3677600D01*
X6609400Y-3637600D02*
X6649400Y-3677600D01*
X6649400Y-3637600D02*
X6609400Y-3677600D01*
D11*
X3429519Y-4566976D02*
X3429519Y-4366976D01*
X3477138Y-4366976D01*
X3505709Y-4376500D01*
X3524757Y-4395548D01*
X3534281Y-4414595D01*
X3543805Y-4452690D01*
X3543805Y-4481262D01*
X3534281Y-4519357D01*
X3524757Y-4538405D01*
X3505709Y-4557452D01*
X3477138Y-4566976D01*
X3429519Y-4566976D01*
X3629519Y-4566976D02*
X3629519Y-4433643D01*
X3629519Y-4471738D02*
X3639043Y-4452690D01*
X3648567Y-4443167D01*
X3667614Y-4433643D01*
X3686662Y-4433643D01*
X3753328Y-4566976D02*
X3753328Y-4433643D01*
X3753328Y-4366976D02*
X3743805Y-4376500D01*
X3753328Y-4386024D01*
X3762852Y-4376500D01*
X3753328Y-4366976D01*
X3753328Y-4386024D01*
X3877138Y-4566976D02*
X3858090Y-4557452D01*
X3848567Y-4538405D01*
X3848567Y-4366976D01*
X3981900Y-4566976D02*
X3962852Y-4557452D01*
X3953328Y-4538405D01*
X3953328Y-4366976D01*
X4210471Y-4566976D02*
X4210471Y-4366976D01*
X4277138Y-4509833D01*
X4343805Y-4366976D01*
X4343805Y-4566976D01*
X4524757Y-4566976D02*
X4524757Y-4462214D01*
X4515233Y-4443167D01*
X4496186Y-4433643D01*
X4458090Y-4433643D01*
X4439043Y-4443167D01*
X4524757Y-4557452D02*
X4505710Y-4566976D01*
X4458090Y-4566976D01*
X4439043Y-4557452D01*
X4429519Y-4538405D01*
X4429519Y-4519357D01*
X4439043Y-4500310D01*
X4458090Y-4490786D01*
X4505710Y-4490786D01*
X4524757Y-4481262D01*
X4619995Y-4433643D02*
X4619995Y-4633643D01*
X4619995Y-4443167D02*
X4639043Y-4433643D01*
X4677138Y-4433643D01*
X4696186Y-4443167D01*
X4705710Y-4452690D01*
X4715233Y-4471738D01*
X4715233Y-4528881D01*
X4705710Y-4547929D01*
X4696186Y-4557452D01*
X4677138Y-4566976D01*
X4639043Y-4566976D01*
X4619995Y-4557452D01*
X4800948Y-4547929D02*
X4810471Y-4557452D01*
X4800948Y-4566976D01*
X4791424Y-4557452D01*
X4800948Y-4547929D01*
X4800948Y-4566976D01*
X4800948Y-4443167D02*
X4810471Y-4452690D01*
X4800948Y-4462214D01*
X4791424Y-4452690D01*
X4800948Y-4443167D01*
X4800948Y-4462214D01*
D12*
X3131900Y-4876500D02*
X3171900Y-4916500D01*
X3171900Y-4876500D02*
X3131900Y-4916500D01*
D11*
X3467614Y-4786976D02*
X3486662Y-4786976D01*
X3505709Y-4796500D01*
X3515233Y-4806024D01*
X3524757Y-4825071D01*
X3534281Y-4863167D01*
X3534281Y-4910786D01*
X3524757Y-4948881D01*
X3515233Y-4967929D01*
X3505709Y-4977452D01*
X3486662Y-4986976D01*
X3467614Y-4986976D01*
X3448567Y-4977452D01*
X3439043Y-4967929D01*
X3429519Y-4948881D01*
X3419995Y-4910786D01*
X3419995Y-4863167D01*
X3429519Y-4825071D01*
X3439043Y-4806024D01*
X3448567Y-4796500D01*
X3467614Y-4786976D01*
X3619995Y-4967929D02*
X3629519Y-4977452D01*
X3619995Y-4986976D01*
X3610471Y-4977452D01*
X3619995Y-4967929D01*
X3619995Y-4986976D01*
X3800948Y-4853643D02*
X3800948Y-4986976D01*
X3753328Y-4777452D02*
X3705709Y-4920310D01*
X3829519Y-4920310D01*
X3943805Y-4786976D02*
X3962852Y-4786976D01*
X3981900Y-4796500D01*
X3991424Y-4806024D01*
X4000948Y-4825071D01*
X4010471Y-4863167D01*
X4010471Y-4910786D01*
X4000948Y-4948881D01*
X3991424Y-4967929D01*
X3981900Y-4977452D01*
X3962852Y-4986976D01*
X3943805Y-4986976D01*
X3924757Y-4977452D01*
X3915233Y-4967929D01*
X3905709Y-4948881D01*
X3896186Y-4910786D01*
X3896186Y-4863167D01*
X3905709Y-4825071D01*
X3915233Y-4806024D01*
X3924757Y-4796500D01*
X3943805Y-4786976D01*
X4134281Y-4786976D02*
X4153328Y-4786976D01*
X4172376Y-4796500D01*
X4181900Y-4806024D01*
X4191424Y-4825071D01*
X4200948Y-4863167D01*
X4200948Y-4910786D01*
X4191424Y-4948881D01*
X4181900Y-4967929D01*
X4172376Y-4977452D01*
X4153328Y-4986976D01*
X4134281Y-4986976D01*
X4115233Y-4977452D01*
X4105709Y-4967929D01*
X4096186Y-4948881D01*
X4086662Y-4910786D01*
X4086662Y-4863167D01*
X4096186Y-4825071D01*
X4105709Y-4806024D01*
X4115233Y-4796500D01*
X4134281Y-4786976D01*
X4286662Y-4986976D02*
X4286662Y-4853643D01*
X4286662Y-4872690D02*
X4296186Y-4863167D01*
X4315233Y-4853643D01*
X4343805Y-4853643D01*
X4362852Y-4863167D01*
X4372376Y-4882214D01*
X4372376Y-4986976D01*
X4372376Y-4882214D02*
X4381900Y-4863167D01*
X4400948Y-4853643D01*
X4429519Y-4853643D01*
X4448567Y-4863167D01*
X4458090Y-4882214D01*
X4458090Y-4986976D01*
X4553329Y-4986976D02*
X4553329Y-4853643D01*
X4553329Y-4872690D02*
X4562852Y-4863167D01*
X4581900Y-4853643D01*
X4610471Y-4853643D01*
X4629519Y-4863167D01*
X4639043Y-4882214D01*
X4639043Y-4986976D01*
X4639043Y-4882214D02*
X4648567Y-4863167D01*
X4667614Y-4853643D01*
X4696186Y-4853643D01*
X4715233Y-4863167D01*
X4724757Y-4882214D01*
X4724757Y-4986976D01*
X5115233Y-4777452D02*
X4943805Y-5034595D01*
X5372376Y-4786976D02*
X5391424Y-4786976D01*
X5410471Y-4796500D01*
X5419995Y-4806024D01*
X5429519Y-4825071D01*
X5439043Y-4863167D01*
X5439043Y-4910786D01*
X5429519Y-4948881D01*
X5419995Y-4967929D01*
X5410471Y-4977452D01*
X5391424Y-4986976D01*
X5372376Y-4986976D01*
X5353329Y-4977452D01*
X5343805Y-4967929D01*
X5334281Y-4948881D01*
X5324757Y-4910786D01*
X5324757Y-4863167D01*
X5334281Y-4825071D01*
X5343805Y-4806024D01*
X5353329Y-4796500D01*
X5372376Y-4786976D01*
X5524757Y-4967929D02*
X5534281Y-4977452D01*
X5524757Y-4986976D01*
X5515233Y-4977452D01*
X5524757Y-4967929D01*
X5524757Y-4986976D01*
X5658090Y-4786976D02*
X5677138Y-4786976D01*
X5696186Y-4796500D01*
X5705709Y-4806024D01*
X5715233Y-4825071D01*
X5724757Y-4863167D01*
X5724757Y-4910786D01*
X5715233Y-4948881D01*
X5705709Y-4967929D01*
X5696186Y-4977452D01*
X5677138Y-4986976D01*
X5658090Y-4986976D01*
X5639043Y-4977452D01*
X5629519Y-4967929D01*
X5619995Y-4948881D01*
X5610471Y-4910786D01*
X5610471Y-4863167D01*
X5619995Y-4825071D01*
X5629519Y-4806024D01*
X5639043Y-4796500D01*
X5658090Y-4786976D01*
X5915233Y-4986976D02*
X5800948Y-4986976D01*
X5858090Y-4986976D02*
X5858090Y-4786976D01*
X5839043Y-4815548D01*
X5819995Y-4834595D01*
X5800948Y-4844119D01*
X6096186Y-4786976D02*
X6000948Y-4786976D01*
X5991424Y-4882214D01*
X6000948Y-4872690D01*
X6019995Y-4863167D01*
X6067614Y-4863167D01*
X6086662Y-4872690D01*
X6096186Y-4882214D01*
X6105709Y-4901262D01*
X6105709Y-4948881D01*
X6096186Y-4967929D01*
X6086662Y-4977452D01*
X6067614Y-4986976D01*
X6019995Y-4986976D01*
X6000948Y-4977452D01*
X5991424Y-4967929D01*
X6172376Y-4786976D02*
X6305709Y-4786976D01*
X6219995Y-4986976D01*
X6372376Y-4786976D02*
X6372376Y-4825071D01*
X6448567Y-4786976D02*
X6448567Y-4825071D01*
X6743805Y-5063167D02*
X6734281Y-5053643D01*
X6715233Y-5025071D01*
X6705709Y-5006024D01*
X6696186Y-4977452D01*
X6686662Y-4929833D01*
X6686662Y-4891738D01*
X6696186Y-4844119D01*
X6705709Y-4815548D01*
X6715233Y-4796500D01*
X6734281Y-4767929D01*
X6743805Y-4758405D01*
X6924757Y-4986976D02*
X6810471Y-4986976D01*
X6867614Y-4986976D02*
X6867614Y-4786976D01*
X6848567Y-4815548D01*
X6829519Y-4834595D01*
X6810471Y-4844119D01*
X7039043Y-4872690D02*
X7019995Y-4863167D01*
X7010471Y-4853643D01*
X7000948Y-4834595D01*
X7000948Y-4825071D01*
X7010471Y-4806024D01*
X7019995Y-4796500D01*
X7039043Y-4786976D01*
X7077138Y-4786976D01*
X7096186Y-4796500D01*
X7105709Y-4806024D01*
X7115233Y-4825071D01*
X7115233Y-4834595D01*
X7105709Y-4853643D01*
X7096186Y-4863167D01*
X7077138Y-4872690D01*
X7039043Y-4872690D01*
X7019995Y-4882214D01*
X7010471Y-4891738D01*
X7000948Y-4910786D01*
X7000948Y-4948881D01*
X7010471Y-4967929D01*
X7019995Y-4977452D01*
X7039043Y-4986976D01*
X7077138Y-4986976D01*
X7096186Y-4977452D01*
X7105709Y-4967929D01*
X7115233Y-4948881D01*
X7115233Y-4910786D01*
X7105709Y-4891738D01*
X7096186Y-4882214D01*
X7077138Y-4872690D01*
X7353328Y-4986976D02*
X7353328Y-4786976D01*
X7439043Y-4986976D02*
X7439043Y-4882214D01*
X7429519Y-4863167D01*
X7410471Y-4853643D01*
X7381900Y-4853643D01*
X7362852Y-4863167D01*
X7353328Y-4872690D01*
X7562852Y-4986976D02*
X7543805Y-4977452D01*
X7534281Y-4967929D01*
X7524757Y-4948881D01*
X7524757Y-4891738D01*
X7534281Y-4872690D01*
X7543805Y-4863167D01*
X7562852Y-4853643D01*
X7591424Y-4853643D01*
X7610471Y-4863167D01*
X7619995Y-4872690D01*
X7629519Y-4891738D01*
X7629519Y-4948881D01*
X7619995Y-4967929D01*
X7610471Y-4977452D01*
X7591424Y-4986976D01*
X7562852Y-4986976D01*
X7743805Y-4986976D02*
X7724757Y-4977452D01*
X7715233Y-4958405D01*
X7715233Y-4786976D01*
X7896186Y-4977452D02*
X7877138Y-4986976D01*
X7839043Y-4986976D01*
X7819995Y-4977452D01*
X7810471Y-4958405D01*
X7810471Y-4882214D01*
X7819995Y-4863167D01*
X7839043Y-4853643D01*
X7877138Y-4853643D01*
X7896186Y-4863167D01*
X7905709Y-4882214D01*
X7905709Y-4901262D01*
X7810471Y-4920310D01*
X7981900Y-4977452D02*
X8000948Y-4986976D01*
X8039043Y-4986976D01*
X8058090Y-4977452D01*
X8067614Y-4958405D01*
X8067614Y-4948881D01*
X8058090Y-4929833D01*
X8039043Y-4920310D01*
X8010471Y-4920310D01*
X7991424Y-4910786D01*
X7981900Y-4891738D01*
X7981900Y-4882214D01*
X7991424Y-4863167D01*
X8010471Y-4853643D01*
X8039043Y-4853643D01*
X8058090Y-4863167D01*
X8134281Y-5063167D02*
X8143805Y-5053643D01*
X8162852Y-5025071D01*
X8172376Y-5006024D01*
X8181900Y-4977452D01*
X8191424Y-4929833D01*
X8191424Y-4891738D01*
X8181900Y-4844119D01*
X8172376Y-4815548D01*
X8162852Y-4796500D01*
X8143805Y-4767929D01*
X8134281Y-4758405D01*
M02*
