G04 #@! TF.GenerationSoftware,KiCad,Pcbnew,(6.0.4)*
G04 #@! TF.CreationDate,2022-12-31T00:33:15-05:00*
G04 #@! TF.ProjectId,scart cable,73636172-7420-4636-9162-6c652e6b6963,rev?*
G04 #@! TF.SameCoordinates,Original*
G04 #@! TF.FileFunction,Legend,Top*
G04 #@! TF.FilePolarity,Positive*
%FSLAX46Y46*%
G04 Gerber Fmt 4.6, Leading zero omitted, Abs format (unit mm)*
G04 Created by KiCad (PCBNEW (6.0.4)) date 2022-12-31 00:33:15*
%MOMM*%
%LPD*%
G01*
G04 APERTURE LIST*
G04 Aperture macros list*
%AMRoundRect*
0 Rectangle with rounded corners*
0 $1 Rounding radius*
0 $2 $3 $4 $5 $6 $7 $8 $9 X,Y pos of 4 corners*
0 Add a 4 corners polygon primitive as box body*
4,1,4,$2,$3,$4,$5,$6,$7,$8,$9,$2,$3,0*
0 Add four circle primitives for the rounded corners*
1,1,$1+$1,$2,$3*
1,1,$1+$1,$4,$5*
1,1,$1+$1,$6,$7*
1,1,$1+$1,$8,$9*
0 Add four rect primitives between the rounded corners*
20,1,$1+$1,$2,$3,$4,$5,0*
20,1,$1+$1,$4,$5,$6,$7,0*
20,1,$1+$1,$6,$7,$8,$9,0*
20,1,$1+$1,$8,$9,$2,$3,0*%
%AMFreePoly0*
4,1,22,0.550000,-0.750000,0.000000,-0.750000,0.000000,-0.745033,-0.079941,-0.743568,-0.215256,-0.701293,-0.333266,-0.622738,-0.424486,-0.514219,-0.481581,-0.384460,-0.499164,-0.250000,-0.500000,-0.250000,-0.500000,0.250000,-0.499164,0.250000,-0.499963,0.256109,-0.478152,0.396186,-0.417904,0.524511,-0.324060,0.630769,-0.204165,0.706417,-0.067858,0.745374,0.000000,0.744959,0.000000,0.750000,
0.550000,0.750000,0.550000,-0.750000,0.550000,-0.750000,$1*%
%AMFreePoly1*
4,1,20,0.000000,0.744959,0.073905,0.744508,0.209726,0.703889,0.328688,0.626782,0.421226,0.519385,0.479903,0.390333,0.500000,0.250000,0.500000,-0.250000,0.499851,-0.262216,0.476331,-0.402017,0.414519,-0.529596,0.319384,-0.634700,0.198574,-0.708877,0.061801,-0.746166,0.000000,-0.745033,0.000000,-0.750000,-0.550000,-0.750000,-0.550000,0.750000,0.000000,0.750000,0.000000,0.744959,
0.000000,0.744959,$1*%
%AMFreePoly2*
4,1,22,0.500000,-0.750000,0.000000,-0.750000,0.000000,-0.745033,-0.079941,-0.743568,-0.215256,-0.701293,-0.333266,-0.622738,-0.424486,-0.514219,-0.481581,-0.384460,-0.499164,-0.250000,-0.500000,-0.250000,-0.500000,0.250000,-0.499164,0.250000,-0.499963,0.256109,-0.478152,0.396186,-0.417904,0.524511,-0.324060,0.630769,-0.204165,0.706417,-0.067858,0.745374,0.000000,0.744959,0.000000,0.750000,
0.500000,0.750000,0.500000,-0.750000,0.500000,-0.750000,$1*%
%AMFreePoly3*
4,1,20,0.000000,0.744959,0.073905,0.744508,0.209726,0.703889,0.328688,0.626782,0.421226,0.519385,0.479903,0.390333,0.500000,0.250000,0.500000,-0.250000,0.499851,-0.262216,0.476331,-0.402017,0.414519,-0.529596,0.319384,-0.634700,0.198574,-0.708877,0.061801,-0.746166,0.000000,-0.745033,0.000000,-0.750000,-0.500000,-0.750000,-0.500000,0.750000,0.000000,0.750000,0.000000,0.744959,
0.000000,0.744959,$1*%
G04 Aperture macros list end*
%ADD10C,0.150000*%
%ADD11C,0.100000*%
%ADD12C,0.120000*%
%ADD13RoundRect,0.500000X0.532364X-0.983152X1.105940X-0.164000X-0.532364X0.983152X-1.105940X0.164000X0*%
%ADD14RoundRect,0.571500X-0.571500X-1.928500X0.571500X-1.928500X0.571500X1.928500X-0.571500X1.928500X0*%
%ADD15RoundRect,0.200000X-0.200000X-0.275000X0.200000X-0.275000X0.200000X0.275000X-0.200000X0.275000X0*%
%ADD16RoundRect,0.500000X0.583088X-0.953943X1.113008X-0.105895X-0.583088X0.953943X-1.113008X0.105895X0*%
%ADD17RoundRect,0.500000X0.599648X-0.943622X1.114686X-0.086454X-0.599648X0.943622X-1.114686X0.086454X0*%
%ADD18RoundRect,0.250000X-1.250000X-0.550000X1.250000X-0.550000X1.250000X0.550000X-1.250000X0.550000X0*%
%ADD19RoundRect,0.200000X0.200000X0.275000X-0.200000X0.275000X-0.200000X-0.275000X0.200000X-0.275000X0*%
%ADD20FreePoly0,180.000000*%
%ADD21R,1.000000X1.500000*%
%ADD22FreePoly1,180.000000*%
%ADD23RoundRect,0.500000X0.566351X-0.963974X1.110990X-0.125304X-0.566351X0.963974X-1.110990X0.125304X0*%
%ADD24FreePoly2,270.000000*%
%ADD25FreePoly3,270.000000*%
%ADD26RoundRect,0.500000X-0.549441X0.973712X-1.108634X0.144674X0.549441X-0.973712X1.108634X-0.144674X0*%
G04 APERTURE END LIST*
D10*
X40856299Y-30102277D02*
X40846235Y-29521099D01*
X40382563Y-29782738D02*
X40941756Y-28953700D01*
X41257580Y-29166726D01*
X41309907Y-29259461D01*
X41322757Y-29325567D01*
X41308979Y-29431151D01*
X41229094Y-29549585D01*
X41136360Y-29601913D01*
X41070253Y-29614763D01*
X40964669Y-29600984D01*
X40648845Y-29387958D01*
X41211601Y-30341931D02*
X41584396Y-29789239D01*
X41770793Y-29512893D02*
X41704687Y-29525743D01*
X41717537Y-29591849D01*
X41783643Y-29579000D01*
X41770793Y-29512893D01*
X41717537Y-29591849D01*
X42334477Y-30295176D02*
X41881797Y-30966301D01*
X41789063Y-31018629D01*
X41722957Y-31031479D01*
X41617373Y-31017700D01*
X41498939Y-30937816D01*
X41446611Y-30845081D01*
X41988310Y-30808389D02*
X41882726Y-30794611D01*
X41724814Y-30688098D01*
X41672487Y-30595364D01*
X41659637Y-30529257D01*
X41673415Y-30423673D01*
X41833185Y-30186805D01*
X41925919Y-30134478D01*
X41992025Y-30121628D01*
X42097610Y-30135406D01*
X42255521Y-30241919D01*
X42307849Y-30334654D01*
X42356462Y-31114150D02*
X42915655Y-30285112D01*
X42711764Y-31353804D02*
X43004674Y-30919546D01*
X43018453Y-30813962D01*
X42966125Y-30721227D01*
X42847691Y-30641343D01*
X42742107Y-30627564D01*
X42676001Y-30640414D01*
X43360905Y-30987510D02*
X43676729Y-31200536D01*
X43665737Y-30791049D02*
X43186428Y-31501652D01*
X43172650Y-31607236D01*
X43224978Y-31699971D01*
X43303933Y-31753227D01*
X51895476Y-24852380D02*
X52562142Y-24852380D01*
X52133571Y-25852380D01*
X53419285Y-24852380D02*
X52943095Y-24852380D01*
X52895476Y-25328571D01*
X52943095Y-25280952D01*
X53038333Y-25233333D01*
X53276428Y-25233333D01*
X53371666Y-25280952D01*
X53419285Y-25328571D01*
X53466904Y-25423809D01*
X53466904Y-25661904D01*
X53419285Y-25757142D01*
X53371666Y-25804761D01*
X53276428Y-25852380D01*
X53038333Y-25852380D01*
X52943095Y-25804761D01*
X52895476Y-25757142D01*
X44613869Y-24038408D02*
X44549135Y-24056970D01*
X44401103Y-24029360D01*
X44317806Y-23983188D01*
X44215946Y-23872281D01*
X44178821Y-23742811D01*
X44183345Y-23636428D01*
X44234041Y-23446748D01*
X44303300Y-23321802D01*
X44437293Y-23178294D01*
X44525114Y-23118083D01*
X44654583Y-23080958D01*
X44802615Y-23108568D01*
X44885912Y-23154740D01*
X44987772Y-23265648D01*
X45006334Y-23330382D01*
X44923972Y-24264746D02*
X44984183Y-24352567D01*
X45150777Y-24444911D01*
X45257160Y-24449435D01*
X45344981Y-24389224D01*
X45368067Y-24347576D01*
X45372591Y-24241192D01*
X45312380Y-24153371D01*
X45187434Y-24084113D01*
X45127223Y-23996292D01*
X45131747Y-23889909D01*
X45154833Y-23848260D01*
X45242654Y-23788049D01*
X45349038Y-23792573D01*
X45473983Y-23861831D01*
X45534194Y-23949652D01*
X45890469Y-24092693D02*
X45775505Y-24791204D01*
X46306954Y-24323555D02*
X45775505Y-24791204D01*
X45576777Y-24953274D01*
X45512042Y-24971837D01*
X45405659Y-24967313D01*
X46640143Y-24508244D02*
X46316936Y-25091324D01*
X46593970Y-24591541D02*
X46658705Y-24572979D01*
X46765088Y-24577503D01*
X46890034Y-24646761D01*
X46950245Y-24734582D01*
X46945721Y-24840966D01*
X46691773Y-25299100D01*
X47506182Y-25696088D02*
X47399799Y-25691565D01*
X47233205Y-25599220D01*
X47172994Y-25511399D01*
X47154431Y-25446664D01*
X47158955Y-25340281D01*
X47297472Y-25090390D01*
X47385293Y-25030179D01*
X47450028Y-25011616D01*
X47556411Y-25016140D01*
X47723005Y-25108485D01*
X47783216Y-25196306D01*
X45896672Y-21839866D02*
X45831623Y-21857295D01*
X45684096Y-21827106D01*
X45601617Y-21779487D01*
X45501709Y-21666819D01*
X45466849Y-21536722D01*
X45473229Y-21430434D01*
X45527228Y-21241667D01*
X45598656Y-21117949D01*
X45735134Y-20976801D01*
X45823992Y-20918132D01*
X45954090Y-20883273D01*
X46101617Y-20913462D01*
X46184096Y-20961081D01*
X46284004Y-21073749D01*
X46301434Y-21138798D01*
X46471061Y-21511661D02*
X46343925Y-22208059D01*
X46883455Y-21749756D01*
X46880036Y-22517582D02*
X47213369Y-21940232D01*
X47380036Y-21651557D02*
X47314987Y-21668987D01*
X47332417Y-21734036D01*
X47397465Y-21716606D01*
X47380036Y-21651557D01*
X47332417Y-21734036D01*
X47663582Y-22969963D02*
X48163582Y-22103938D01*
X47687392Y-22928724D02*
X47581104Y-22922344D01*
X47416147Y-22827106D01*
X47357478Y-22738248D01*
X47340048Y-22673199D01*
X47346427Y-22566911D01*
X47489285Y-22319475D01*
X47578143Y-22260806D01*
X47643192Y-22243376D01*
X47749480Y-22249756D01*
X47914437Y-22344994D01*
X47973106Y-22433852D01*
X48429699Y-23357295D02*
X48323411Y-23350916D01*
X48158454Y-23255678D01*
X48099785Y-23166819D01*
X48106165Y-23060531D01*
X48296641Y-22730617D01*
X48385499Y-22671948D01*
X48491787Y-22678327D01*
X48656745Y-22773565D01*
X48715414Y-22862424D01*
X48709034Y-22968712D01*
X48661415Y-23051191D01*
X48201403Y-22895574D01*
X48942001Y-23708059D02*
X48883332Y-23619200D01*
X48865902Y-23554151D01*
X48872282Y-23447863D01*
X49015139Y-23200427D01*
X49103997Y-23141758D01*
X49169046Y-23124329D01*
X49275334Y-23130708D01*
X49399052Y-23202137D01*
X49457721Y-23290995D01*
X49475151Y-23356044D01*
X49468771Y-23462332D01*
X49325914Y-23709768D01*
X49237056Y-23768437D01*
X49172007Y-23785867D01*
X49065719Y-23779487D01*
X48942001Y-23708059D01*
X55665952Y-32567619D02*
X55713571Y-32520000D01*
X55808809Y-32472380D01*
X56046904Y-32472380D01*
X56142142Y-32520000D01*
X56189761Y-32567619D01*
X56237380Y-32662857D01*
X56237380Y-32758095D01*
X56189761Y-32900952D01*
X55618333Y-33472380D01*
X56237380Y-33472380D01*
X56618333Y-32567619D02*
X56665952Y-32520000D01*
X56761190Y-32472380D01*
X56999285Y-32472380D01*
X57094523Y-32520000D01*
X57142142Y-32567619D01*
X57189761Y-32662857D01*
X57189761Y-32758095D01*
X57142142Y-32900952D01*
X56570714Y-33472380D01*
X57189761Y-33472380D01*
X57808809Y-32472380D02*
X57904047Y-32472380D01*
X57999285Y-32520000D01*
X58046904Y-32567619D01*
X58094523Y-32662857D01*
X58142142Y-32853333D01*
X58142142Y-33091428D01*
X58094523Y-33281904D01*
X58046904Y-33377142D01*
X57999285Y-33424761D01*
X57904047Y-33472380D01*
X57808809Y-33472380D01*
X57713571Y-33424761D01*
X57665952Y-33377142D01*
X57618333Y-33281904D01*
X57570714Y-33091428D01*
X57570714Y-32853333D01*
X57618333Y-32662857D01*
X57665952Y-32567619D01*
X57713571Y-32520000D01*
X57808809Y-32472380D01*
X58999285Y-32805714D02*
X58999285Y-33472380D01*
X58570714Y-32805714D02*
X58570714Y-33329523D01*
X58618333Y-33424761D01*
X58713571Y-33472380D01*
X58856428Y-33472380D01*
X58951666Y-33424761D01*
X58999285Y-33377142D01*
X59808809Y-32948571D02*
X59475476Y-32948571D01*
X59475476Y-33472380D02*
X59475476Y-32472380D01*
X59951666Y-32472380D01*
X39905810Y-31602628D02*
X39856750Y-31508124D01*
X39741176Y-31424155D01*
X39597613Y-31378710D01*
X39464584Y-31399780D01*
X39370080Y-31448839D01*
X39219596Y-31574948D01*
X39135627Y-31690522D01*
X39062192Y-31872610D01*
X39044737Y-31977649D01*
X39065807Y-32110678D01*
X39153391Y-32233172D01*
X39230440Y-32289151D01*
X39374004Y-32334596D01*
X39440518Y-32324061D01*
X39636447Y-32054389D01*
X39482348Y-31942430D01*
X40123117Y-32113674D02*
X39731260Y-32653018D01*
X40067138Y-32190723D02*
X40133652Y-32180188D01*
X40238691Y-32197643D01*
X40354265Y-32281612D01*
X40403324Y-32376116D01*
X40385870Y-32481155D01*
X40077982Y-32904926D01*
X40809950Y-33436732D02*
X41397735Y-32627715D01*
X40837940Y-33398207D02*
X40732901Y-33380752D01*
X40578802Y-33268793D01*
X40529743Y-33174289D01*
X40519208Y-33107775D01*
X40536663Y-33002736D01*
X40704601Y-32771588D01*
X40799106Y-32722528D01*
X40865620Y-32711994D01*
X40970659Y-32729449D01*
X41124757Y-32841408D01*
X41173817Y-32935912D01*
X46863095Y-31535714D02*
X46863095Y-32202380D01*
X46625000Y-31154761D02*
X46386904Y-31869047D01*
X47005952Y-31869047D01*
X47291666Y-31202380D02*
X47958333Y-31202380D01*
X47529761Y-32202380D01*
X48529761Y-31202380D02*
X48625000Y-31202380D01*
X48720238Y-31250000D01*
X48767857Y-31297619D01*
X48815476Y-31392857D01*
X48863095Y-31583333D01*
X48863095Y-31821428D01*
X48815476Y-32011904D01*
X48767857Y-32107142D01*
X48720238Y-32154761D01*
X48625000Y-32202380D01*
X48529761Y-32202380D01*
X48434523Y-32154761D01*
X48386904Y-32107142D01*
X48339285Y-32011904D01*
X48291666Y-31821428D01*
X48291666Y-31583333D01*
X48339285Y-31392857D01*
X48386904Y-31297619D01*
X48434523Y-31250000D01*
X48529761Y-31202380D01*
X43916774Y-25207282D02*
X43517407Y-24947930D01*
X43218118Y-25321362D01*
X43283990Y-25307360D01*
X43389798Y-25319294D01*
X43589482Y-25448970D01*
X43643420Y-25540777D01*
X43657422Y-25606649D01*
X43645488Y-25712457D01*
X43515812Y-25912141D01*
X43424005Y-25966079D01*
X43358133Y-25980081D01*
X43252324Y-25968147D01*
X43052641Y-25838471D01*
X42998703Y-25746664D01*
X42984701Y-25680792D01*
X44054721Y-25694320D02*
X43891312Y-26383110D01*
X44454088Y-25953672D01*
X44410489Y-26720267D02*
X44955128Y-25881597D01*
X45154811Y-26011273D01*
X45248686Y-26129015D01*
X45276689Y-26260759D01*
X45264755Y-26366567D01*
X45200951Y-26552249D01*
X45123146Y-26672060D01*
X44979468Y-26805871D01*
X44887661Y-26859809D01*
X44755917Y-26887812D01*
X44610172Y-26849943D01*
X44410489Y-26720267D01*
X45780270Y-27496255D02*
X45714398Y-27510257D01*
X45568653Y-27472388D01*
X45488779Y-27420518D01*
X45394904Y-27302775D01*
X45366901Y-27171032D01*
X45378835Y-27065223D01*
X45442639Y-26879541D01*
X45520445Y-26759731D01*
X45664122Y-26625919D01*
X45755929Y-26571981D01*
X45887673Y-26543978D01*
X46033418Y-26581847D01*
X46113292Y-26633717D01*
X46207167Y-26751460D01*
X46221168Y-26817332D01*
X56483333Y-36012380D02*
X55911904Y-36012380D01*
X56197619Y-36012380D02*
X56197619Y-35012380D01*
X56102380Y-35155238D01*
X56007142Y-35250476D01*
X55911904Y-35298095D01*
X57054761Y-35440952D02*
X56959523Y-35393333D01*
X56911904Y-35345714D01*
X56864285Y-35250476D01*
X56864285Y-35202857D01*
X56911904Y-35107619D01*
X56959523Y-35060000D01*
X57054761Y-35012380D01*
X57245238Y-35012380D01*
X57340476Y-35060000D01*
X57388095Y-35107619D01*
X57435714Y-35202857D01*
X57435714Y-35250476D01*
X57388095Y-35345714D01*
X57340476Y-35393333D01*
X57245238Y-35440952D01*
X57054761Y-35440952D01*
X56959523Y-35488571D01*
X56911904Y-35536190D01*
X56864285Y-35631428D01*
X56864285Y-35821904D01*
X56911904Y-35917142D01*
X56959523Y-35964761D01*
X57054761Y-36012380D01*
X57245238Y-36012380D01*
X57340476Y-35964761D01*
X57388095Y-35917142D01*
X57435714Y-35821904D01*
X57435714Y-35631428D01*
X57388095Y-35536190D01*
X57340476Y-35488571D01*
X57245238Y-35440952D01*
X58054761Y-35012380D02*
X58150000Y-35012380D01*
X58245238Y-35060000D01*
X58292857Y-35107619D01*
X58340476Y-35202857D01*
X58388095Y-35393333D01*
X58388095Y-35631428D01*
X58340476Y-35821904D01*
X58292857Y-35917142D01*
X58245238Y-35964761D01*
X58150000Y-36012380D01*
X58054761Y-36012380D01*
X57959523Y-35964761D01*
X57911904Y-35917142D01*
X57864285Y-35821904D01*
X57816666Y-35631428D01*
X57816666Y-35393333D01*
X57864285Y-35202857D01*
X57911904Y-35107619D01*
X57959523Y-35060000D01*
X58054761Y-35012380D01*
D11*
X44771666Y-39009999D02*
X44771666Y-39409999D01*
X44771666Y-39209999D02*
X44071666Y-39209999D01*
X44171666Y-39276666D01*
X44238333Y-39343333D01*
X44271666Y-39409999D01*
X44071666Y-38409999D02*
X44071666Y-38543333D01*
X44105000Y-38609999D01*
X44138333Y-38643333D01*
X44238333Y-38709999D01*
X44371666Y-38743333D01*
X44638333Y-38743333D01*
X44705000Y-38709999D01*
X44738333Y-38676666D01*
X44771666Y-38609999D01*
X44771666Y-38476666D01*
X44738333Y-38409999D01*
X44705000Y-38376666D01*
X44638333Y-38343333D01*
X44471666Y-38343333D01*
X44405000Y-38376666D01*
X44371666Y-38409999D01*
X44338333Y-38476666D01*
X44338333Y-38609999D01*
X44371666Y-38676666D01*
X44405000Y-38709999D01*
X44471666Y-38743333D01*
X44705000Y-38043333D02*
X44738333Y-38009999D01*
X44771666Y-38043333D01*
X44738333Y-38076666D01*
X44705000Y-38043333D01*
X44771666Y-38043333D01*
X44338333Y-38043333D02*
X44371666Y-38009999D01*
X44405000Y-38043333D01*
X44371666Y-38076666D01*
X44338333Y-38043333D01*
X44405000Y-38043333D01*
X44771666Y-37676666D02*
X44771666Y-37543333D01*
X44738333Y-37476666D01*
X44705000Y-37443333D01*
X44605000Y-37376666D01*
X44471666Y-37343333D01*
X44205000Y-37343333D01*
X44138333Y-37376666D01*
X44105000Y-37409999D01*
X44071666Y-37476666D01*
X44071666Y-37609999D01*
X44105000Y-37676666D01*
X44138333Y-37709999D01*
X44205000Y-37743333D01*
X44371666Y-37743333D01*
X44438333Y-37709999D01*
X44471666Y-37676666D01*
X44505000Y-37609999D01*
X44505000Y-37476666D01*
X44471666Y-37409999D01*
X44438333Y-37376666D01*
X44371666Y-37343333D01*
X44838333Y-37209999D02*
X44838333Y-36676666D01*
X44771666Y-36209999D02*
X44405000Y-36209999D01*
X44338333Y-36243333D01*
X44305000Y-36309999D01*
X44305000Y-36443333D01*
X44338333Y-36509999D01*
X44738333Y-36209999D02*
X44771666Y-36276666D01*
X44771666Y-36443333D01*
X44738333Y-36509999D01*
X44671666Y-36543333D01*
X44605000Y-36543333D01*
X44538333Y-36509999D01*
X44505000Y-36443333D01*
X44505000Y-36276666D01*
X44471666Y-36209999D01*
X44738333Y-35909999D02*
X44771666Y-35843333D01*
X44771666Y-35709999D01*
X44738333Y-35643333D01*
X44671666Y-35609999D01*
X44638333Y-35609999D01*
X44571666Y-35643333D01*
X44538333Y-35709999D01*
X44538333Y-35809999D01*
X44505000Y-35876666D01*
X44438333Y-35909999D01*
X44405000Y-35909999D01*
X44338333Y-35876666D01*
X44305000Y-35809999D01*
X44305000Y-35709999D01*
X44338333Y-35643333D01*
X44305000Y-35310000D02*
X45005000Y-35310000D01*
X44338333Y-35310000D02*
X44305000Y-35243333D01*
X44305000Y-35110000D01*
X44338333Y-35043333D01*
X44371666Y-35010000D01*
X44438333Y-34976666D01*
X44638333Y-34976666D01*
X44705000Y-35010000D01*
X44738333Y-35043333D01*
X44771666Y-35110000D01*
X44771666Y-35243333D01*
X44738333Y-35310000D01*
X44738333Y-34410000D02*
X44771666Y-34476666D01*
X44771666Y-34610000D01*
X44738333Y-34676666D01*
X44671666Y-34710000D01*
X44405000Y-34710000D01*
X44338333Y-34676666D01*
X44305000Y-34610000D01*
X44305000Y-34476666D01*
X44338333Y-34410000D01*
X44405000Y-34376666D01*
X44471666Y-34376666D01*
X44538333Y-34710000D01*
X44738333Y-33776666D02*
X44771666Y-33843333D01*
X44771666Y-33976666D01*
X44738333Y-34043333D01*
X44705000Y-34076666D01*
X44638333Y-34110000D01*
X44438333Y-34110000D01*
X44371666Y-34076666D01*
X44338333Y-34043333D01*
X44305000Y-33976666D01*
X44305000Y-33843333D01*
X44338333Y-33776666D01*
X44305000Y-33576666D02*
X44305000Y-33310000D01*
X44071666Y-33476666D02*
X44671666Y-33476666D01*
X44738333Y-33443333D01*
X44771666Y-33376666D01*
X44771666Y-33310000D01*
X44838333Y-33243333D02*
X44838333Y-32710000D01*
X44771666Y-32543333D02*
X44305000Y-32543333D01*
X44438333Y-32543333D02*
X44371666Y-32510000D01*
X44338333Y-32476666D01*
X44305000Y-32410000D01*
X44305000Y-32343333D01*
X44771666Y-31810000D02*
X44405000Y-31810000D01*
X44338333Y-31843333D01*
X44305000Y-31910000D01*
X44305000Y-32043333D01*
X44338333Y-32110000D01*
X44738333Y-31810000D02*
X44771666Y-31876666D01*
X44771666Y-32043333D01*
X44738333Y-32110000D01*
X44671666Y-32143333D01*
X44605000Y-32143333D01*
X44538333Y-32110000D01*
X44505000Y-32043333D01*
X44505000Y-31876666D01*
X44471666Y-31810000D01*
X44305000Y-31576666D02*
X44305000Y-31310000D01*
X44071666Y-31476666D02*
X44671666Y-31476666D01*
X44738333Y-31443333D01*
X44771666Y-31376666D01*
X44771666Y-31310000D01*
X44771666Y-31076666D02*
X44305000Y-31076666D01*
X44071666Y-31076666D02*
X44105000Y-31110000D01*
X44138333Y-31076666D01*
X44105000Y-31043333D01*
X44071666Y-31076666D01*
X44138333Y-31076666D01*
X44771666Y-30643333D02*
X44738333Y-30710000D01*
X44705000Y-30743333D01*
X44638333Y-30776666D01*
X44438333Y-30776666D01*
X44371666Y-30743333D01*
X44338333Y-30710000D01*
X44305000Y-30643333D01*
X44305000Y-30543333D01*
X44338333Y-30476666D01*
X44371666Y-30443333D01*
X44438333Y-30410000D01*
X44638333Y-30410000D01*
X44705000Y-30443333D01*
X44738333Y-30476666D01*
X44771666Y-30543333D01*
X44771666Y-30643333D01*
D10*
X41846919Y-28295527D02*
X41456847Y-28022396D01*
X42030423Y-27203244D01*
X42459341Y-28666218D02*
X42354014Y-28650599D01*
X42197985Y-28541346D01*
X42147283Y-28447712D01*
X42162902Y-28342385D01*
X42381408Y-28030327D01*
X42475041Y-27979625D01*
X42580369Y-27995245D01*
X42736398Y-28104497D01*
X42787099Y-28198131D01*
X42771480Y-28303458D01*
X42716854Y-28381473D01*
X42272155Y-28186356D01*
X43087463Y-28350316D02*
X43399521Y-28568821D01*
X42822100Y-28978357D02*
X43313737Y-28276226D01*
X43407371Y-28225525D01*
X43512699Y-28241144D01*
X43590713Y-28295770D01*
X43555550Y-28678074D02*
X43867608Y-28896579D01*
X43863764Y-28486962D02*
X43372127Y-29189093D01*
X43356508Y-29294420D01*
X43407209Y-29388054D01*
X43485224Y-29442680D01*
D12*
X49927742Y-24242500D02*
X50402258Y-24242500D01*
X49927742Y-25287500D02*
X50402258Y-25287500D01*
X51644437Y-28355000D02*
X56100000Y-28355000D01*
X50580000Y-32810563D02*
X51644437Y-33875000D01*
X51644437Y-33875000D02*
X56100000Y-33875000D01*
X50580000Y-32810563D02*
X50580000Y-32175000D01*
X56100000Y-33875000D02*
X56100000Y-32175000D01*
X56100000Y-28355000D02*
X56100000Y-30055000D01*
X50027500Y-29117500D02*
X50027500Y-29742500D01*
X49715000Y-29430000D02*
X50340000Y-29430000D01*
X50580000Y-29419437D02*
X50580000Y-30055000D01*
X50580000Y-29419437D02*
X51644437Y-28355000D01*
X47862258Y-29322500D02*
X47387742Y-29322500D01*
X47862258Y-30367500D02*
X47387742Y-30367500D01*
G36*
X62098335Y-33674527D02*
G01*
X62103414Y-33693466D01*
X62104458Y-33699446D01*
X62132590Y-33831415D01*
X62174231Y-33957660D01*
X62228255Y-34075138D01*
X62270190Y-34146462D01*
X62308475Y-34205644D01*
X62308475Y-35114787D01*
X62279834Y-35139558D01*
X62254552Y-35160902D01*
X62225804Y-35184459D01*
X62216898Y-35191595D01*
X62199701Y-35205331D01*
X62171625Y-35227827D01*
X62135317Y-35256961D01*
X62093424Y-35290607D01*
X62048593Y-35326643D01*
X62039370Y-35334060D01*
X61996303Y-35368679D01*
X61957548Y-35399793D01*
X61925245Y-35425690D01*
X61901529Y-35444657D01*
X61888539Y-35454981D01*
X61887026Y-35456157D01*
X61878847Y-35451764D01*
X61859372Y-35435643D01*
X61829388Y-35408534D01*
X61789678Y-35371179D01*
X61741026Y-35324320D01*
X61684218Y-35268697D01*
X61620038Y-35205053D01*
X61598344Y-35183386D01*
X61318774Y-34903717D01*
X61441082Y-34751898D01*
X61477335Y-34706922D01*
X61510636Y-34665653D01*
X61539196Y-34630306D01*
X61561226Y-34603094D01*
X61574936Y-34586231D01*
X61577850Y-34582686D01*
X61589433Y-34568508D01*
X61608666Y-34544712D01*
X61632363Y-34515248D01*
X61646473Y-34497647D01*
X61700637Y-34430000D01*
X61662355Y-34354444D01*
X61642361Y-34314217D01*
X61622356Y-34272696D01*
X61605746Y-34236989D01*
X61601364Y-34227176D01*
X61578653Y-34175463D01*
X61832829Y-33921178D01*
X61887554Y-33866573D01*
X61938531Y-33815987D01*
X61984445Y-33770702D01*
X62023985Y-33731999D01*
X62055836Y-33701163D01*
X62078687Y-33679474D01*
X62091224Y-33668216D01*
X62093177Y-33666893D01*
X62098335Y-33674527D01*
G37*
G36*
X62548492Y-34453189D02*
G01*
X62570321Y-34468119D01*
X62597311Y-34486838D01*
X62599796Y-34488574D01*
X62668943Y-34532323D01*
X62746439Y-34573821D01*
X62823436Y-34608426D01*
X62842343Y-34615745D01*
X62878061Y-34628119D01*
X62919303Y-34640990D01*
X62961759Y-34653177D01*
X63001119Y-34663502D01*
X63033073Y-34670782D01*
X63053311Y-34673837D01*
X63054532Y-34673865D01*
X63063124Y-34679842D01*
X63082736Y-34697008D01*
X63112174Y-34724216D01*
X63150240Y-34760318D01*
X63195740Y-34804168D01*
X63247477Y-34854618D01*
X63304255Y-34910520D01*
X63364880Y-34970728D01*
X63387620Y-34993441D01*
X63707108Y-35313016D01*
X63701761Y-35360204D01*
X63698565Y-35388214D01*
X63694018Y-35427812D01*
X63688772Y-35473338D01*
X63684354Y-35511562D01*
X63678285Y-35565271D01*
X63671764Y-35625060D01*
X63665756Y-35681977D01*
X63662782Y-35711220D01*
X63658394Y-35753885D01*
X63654078Y-35793518D01*
X63650417Y-35824867D01*
X63648529Y-35839261D01*
X63643791Y-35871814D01*
X62856891Y-35871814D01*
X62852152Y-35839261D01*
X62849318Y-35817030D01*
X62845415Y-35782768D01*
X62841027Y-35741727D01*
X62837925Y-35711220D01*
X62832532Y-35659312D01*
X62825977Y-35599664D01*
X62819313Y-35541753D01*
X62816207Y-35515902D01*
X62810408Y-35465843D01*
X62804754Y-35412369D01*
X62800060Y-35363404D01*
X62798034Y-35339362D01*
X62794244Y-35303393D01*
X62789417Y-35276247D01*
X62784264Y-35261545D01*
X62782493Y-35260004D01*
X62756768Y-35252254D01*
X62720974Y-35240632D01*
X62679887Y-35226787D01*
X62638284Y-35212363D01*
X62600942Y-35199008D01*
X62572637Y-35188367D01*
X62562388Y-35184151D01*
X62525495Y-35167858D01*
X62525495Y-34803158D01*
X62525591Y-34711036D01*
X62525906Y-34635002D01*
X62526478Y-34573781D01*
X62527346Y-34526100D01*
X62528548Y-34490686D01*
X62530123Y-34466265D01*
X62532110Y-34451565D01*
X62534546Y-34445310D01*
X62536346Y-34445143D01*
X62548492Y-34453189D01*
G37*
G36*
X65074143Y-33080576D02*
G01*
X65103968Y-33083882D01*
X65145141Y-33088542D01*
X65191770Y-33093885D01*
X65229562Y-33098261D01*
X65283268Y-33104358D01*
X65343055Y-33110902D01*
X65399969Y-33116922D01*
X65429220Y-33119900D01*
X65471885Y-33124287D01*
X65511518Y-33128603D01*
X65542867Y-33132265D01*
X65557261Y-33134152D01*
X65589814Y-33138891D01*
X65589814Y-33925791D01*
X65557261Y-33930529D01*
X65535030Y-33933364D01*
X65500768Y-33937266D01*
X65459727Y-33941654D01*
X65429220Y-33944757D01*
X65377312Y-33950149D01*
X65317664Y-33956705D01*
X65259753Y-33963369D01*
X65233902Y-33966475D01*
X65183843Y-33972273D01*
X65130369Y-33977928D01*
X65081404Y-33982622D01*
X65057362Y-33984648D01*
X65021411Y-33988436D01*
X64994259Y-33993262D01*
X64979536Y-33998413D01*
X64977983Y-34000188D01*
X64968236Y-34032643D01*
X64954543Y-34074966D01*
X64939054Y-34120770D01*
X64923917Y-34163666D01*
X64914156Y-34189911D01*
X64891603Y-34248506D01*
X64528884Y-34248506D01*
X64451427Y-34248415D01*
X64379625Y-34248156D01*
X64315278Y-34247748D01*
X64260183Y-34247211D01*
X64216137Y-34246563D01*
X64184940Y-34245825D01*
X64168387Y-34245016D01*
X64166164Y-34244582D01*
X64170786Y-34236113D01*
X64183032Y-34217212D01*
X64200474Y-34191602D01*
X64204742Y-34185471D01*
X64250905Y-34112605D01*
X64293866Y-34032100D01*
X64329020Y-33952711D01*
X64333745Y-33940338D01*
X64347314Y-33901143D01*
X64360879Y-33857289D01*
X64373274Y-33813114D01*
X64383337Y-33772955D01*
X64389903Y-33741149D01*
X64391865Y-33723809D01*
X64398001Y-33712983D01*
X64416443Y-33690569D01*
X64447242Y-33656513D01*
X64490450Y-33610761D01*
X64546118Y-33553258D01*
X64614298Y-33483950D01*
X64695041Y-33402783D01*
X64707379Y-33390442D01*
X65022894Y-33075016D01*
X65074143Y-33080576D01*
G37*
G36*
X64901386Y-31880344D02*
G01*
X64967412Y-31946691D01*
X65025650Y-32005914D01*
X65075359Y-32057228D01*
X65115798Y-32099850D01*
X65146226Y-32132993D01*
X65165901Y-32155875D01*
X65174081Y-32167709D01*
X65174157Y-32169026D01*
X65166559Y-32178655D01*
X65150029Y-32199371D01*
X65126523Y-32228735D01*
X65097999Y-32264313D01*
X65066413Y-32303668D01*
X65033723Y-32344363D01*
X65001885Y-32383962D01*
X64972857Y-32420029D01*
X64948595Y-32450128D01*
X64931056Y-32471821D01*
X64922763Y-32481995D01*
X64911205Y-32496179D01*
X64891996Y-32519974D01*
X64868322Y-32549426D01*
X64854303Y-32566917D01*
X64800234Y-32634447D01*
X64846728Y-32727481D01*
X64866311Y-32767476D01*
X64884017Y-32805103D01*
X64897741Y-32835804D01*
X64904810Y-32853341D01*
X64916397Y-32886166D01*
X64665038Y-33137637D01*
X64610643Y-33191923D01*
X64560023Y-33242185D01*
X64514496Y-33287133D01*
X64475381Y-33325478D01*
X64443993Y-33355931D01*
X64421652Y-33377202D01*
X64409674Y-33388003D01*
X64408041Y-33389108D01*
X64400518Y-33382224D01*
X64397134Y-33375376D01*
X64392758Y-33355365D01*
X64391865Y-33342288D01*
X64389187Y-33320138D01*
X64381934Y-33285975D01*
X64371275Y-33244170D01*
X64358381Y-33199092D01*
X64344420Y-33155113D01*
X64333529Y-33124343D01*
X64303099Y-33050207D01*
X64269524Y-32983571D01*
X64229988Y-32917904D01*
X64192207Y-32859038D01*
X64192207Y-31949895D01*
X64220847Y-31925123D01*
X64246112Y-31903779D01*
X64274846Y-31880197D01*
X64283783Y-31873018D01*
X64300658Y-31859504D01*
X64328517Y-31837119D01*
X64364834Y-31807896D01*
X64407081Y-31773870D01*
X64452733Y-31737073D01*
X64469898Y-31723230D01*
X64621717Y-31600774D01*
X64901386Y-31880344D01*
G37*
G36*
X63648529Y-31225420D02*
G01*
X63651364Y-31247651D01*
X63655266Y-31281914D01*
X63659654Y-31322954D01*
X63662757Y-31353462D01*
X63668149Y-31405369D01*
X63674705Y-31465018D01*
X63681369Y-31522929D01*
X63684475Y-31548780D01*
X63690273Y-31598838D01*
X63695928Y-31652312D01*
X63700622Y-31701277D01*
X63702648Y-31725320D01*
X63706438Y-31761289D01*
X63711264Y-31788435D01*
X63716418Y-31803136D01*
X63718188Y-31804677D01*
X63743913Y-31812428D01*
X63779708Y-31824049D01*
X63820794Y-31837895D01*
X63862397Y-31852318D01*
X63899739Y-31865674D01*
X63928044Y-31876315D01*
X63938294Y-31880531D01*
X63975187Y-31896824D01*
X63975187Y-32261011D01*
X63975137Y-32338622D01*
X63974994Y-32410574D01*
X63974770Y-32475074D01*
X63974473Y-32530329D01*
X63974117Y-32574546D01*
X63973710Y-32605930D01*
X63973264Y-32622690D01*
X63973017Y-32625030D01*
X63965435Y-32620347D01*
X63946792Y-32607881D01*
X63920270Y-32589776D01*
X63901400Y-32576755D01*
X63785310Y-32506675D01*
X63659706Y-32450275D01*
X63526993Y-32408608D01*
X63506424Y-32403648D01*
X63441318Y-32388563D01*
X63117944Y-32066359D01*
X62794569Y-31744154D01*
X62799419Y-31700722D01*
X62802397Y-31674377D01*
X62806754Y-31636232D01*
X62811868Y-31591732D01*
X62816327Y-31553120D01*
X62822396Y-31499411D01*
X62828918Y-31439621D01*
X62834925Y-31382705D01*
X62837900Y-31353462D01*
X62842287Y-31310796D01*
X62846603Y-31271163D01*
X62850265Y-31239815D01*
X62852152Y-31225420D01*
X62856891Y-31192867D01*
X63643791Y-31192867D01*
X63648529Y-31225420D01*
G37*
G36*
X62071645Y-32807591D02*
G01*
X62147680Y-32807906D01*
X62208901Y-32808478D01*
X62256582Y-32809346D01*
X62291996Y-32810548D01*
X62316416Y-32812123D01*
X62331117Y-32814110D01*
X62337371Y-32816546D01*
X62337538Y-32818346D01*
X62329493Y-32830492D01*
X62314563Y-32852321D01*
X62295843Y-32879311D01*
X62294108Y-32881796D01*
X62250358Y-32950943D01*
X62208861Y-33028439D01*
X62174255Y-33105436D01*
X62166936Y-33124343D01*
X62154563Y-33160061D01*
X62141692Y-33201303D01*
X62129504Y-33243759D01*
X62119180Y-33283119D01*
X62111900Y-33315073D01*
X62108844Y-33335311D01*
X62108816Y-33336532D01*
X62102796Y-33346052D01*
X62085674Y-33366154D01*
X62058862Y-33395439D01*
X62023772Y-33432505D01*
X61981813Y-33475954D01*
X61934396Y-33524385D01*
X61882934Y-33576400D01*
X61828836Y-33630597D01*
X61773513Y-33685578D01*
X61718377Y-33739943D01*
X61664838Y-33792292D01*
X61614307Y-33841225D01*
X61568196Y-33885343D01*
X61527914Y-33923246D01*
X61494874Y-33953534D01*
X61470485Y-33974807D01*
X61456159Y-33985666D01*
X61453373Y-33986782D01*
X61431774Y-33984805D01*
X61410013Y-33982464D01*
X61332079Y-33973458D01*
X61268492Y-33966164D01*
X61216357Y-33960261D01*
X61172779Y-33955427D01*
X61134864Y-33951340D01*
X61099716Y-33947678D01*
X61071462Y-33944820D01*
X61028797Y-33940417D01*
X60989165Y-33936088D01*
X60957816Y-33932419D01*
X60943420Y-33930529D01*
X60910867Y-33925791D01*
X60910867Y-33138891D01*
X60943420Y-33134152D01*
X60965651Y-33131318D01*
X60999914Y-33127415D01*
X61040954Y-33123027D01*
X61071462Y-33119925D01*
X61123369Y-33114532D01*
X61183018Y-33107977D01*
X61240929Y-33101313D01*
X61266780Y-33098207D01*
X61316838Y-33092408D01*
X61370312Y-33086754D01*
X61419277Y-33082060D01*
X61443320Y-33080034D01*
X61479289Y-33076244D01*
X61506435Y-33071417D01*
X61521136Y-33066264D01*
X61522677Y-33064493D01*
X61530428Y-33038768D01*
X61542049Y-33002974D01*
X61555895Y-32961887D01*
X61570318Y-32920284D01*
X61583674Y-32882942D01*
X61594315Y-32854637D01*
X61598531Y-32844388D01*
X61614824Y-32807495D01*
X61979523Y-32807495D01*
X62071645Y-32807591D01*
G37*
G36*
X64384051Y-34465937D02*
G01*
X64830245Y-34466347D01*
X64869309Y-34515643D01*
X64890961Y-34542886D01*
X64910167Y-34566910D01*
X64922763Y-34582508D01*
X64933877Y-34596210D01*
X64953148Y-34620100D01*
X64978640Y-34651769D01*
X65008418Y-34688806D01*
X65040547Y-34728801D01*
X65073093Y-34769344D01*
X65104121Y-34808025D01*
X65131696Y-34842434D01*
X65153883Y-34870160D01*
X65168746Y-34888794D01*
X65174157Y-34895656D01*
X65169764Y-34903835D01*
X65153643Y-34923309D01*
X65126534Y-34953294D01*
X65089179Y-34993004D01*
X65042320Y-35041655D01*
X64986697Y-35098463D01*
X64923053Y-35162643D01*
X64901386Y-35184337D01*
X64621717Y-35463908D01*
X64469898Y-35341599D01*
X64424922Y-35305347D01*
X64383653Y-35272046D01*
X64348306Y-35243486D01*
X64321094Y-35221456D01*
X64304231Y-35207745D01*
X64300686Y-35204832D01*
X64286508Y-35193249D01*
X64262712Y-35174016D01*
X64233248Y-35150318D01*
X64215647Y-35136208D01*
X64148000Y-35082045D01*
X64072444Y-35120326D01*
X64032514Y-35140184D01*
X63991580Y-35159928D01*
X63956601Y-35176220D01*
X63946820Y-35180591D01*
X63896751Y-35202575D01*
X63640007Y-34946269D01*
X63585277Y-34891448D01*
X63534722Y-34840451D01*
X63489595Y-34794568D01*
X63451146Y-34755090D01*
X63420630Y-34723304D01*
X63399297Y-34700503D01*
X63388402Y-34687976D01*
X63387269Y-34685957D01*
X63397287Y-34682624D01*
X63419511Y-34677860D01*
X63446679Y-34673102D01*
X63575993Y-34643751D01*
X63703178Y-34597530D01*
X63827033Y-34534905D01*
X63871885Y-34507601D01*
X63937858Y-34465526D01*
X64384051Y-34465937D01*
G37*
G36*
X62731479Y-33205170D02*
G01*
X62776915Y-33126627D01*
X62836703Y-33052349D01*
X62855365Y-33032742D01*
X62928627Y-32967793D01*
X63006991Y-32917972D01*
X63094082Y-32881108D01*
X63124393Y-32871691D01*
X63162888Y-32861276D01*
X63194279Y-32854919D01*
X63224898Y-32851961D01*
X63261080Y-32851736D01*
X63301094Y-32853209D01*
X63377080Y-32860002D01*
X63442180Y-32873862D01*
X63502005Y-32896449D01*
X63562167Y-32929419D01*
X63565036Y-32931214D01*
X63630465Y-32982327D01*
X63686304Y-33046467D01*
X63730966Y-33121253D01*
X63762860Y-33204304D01*
X63772162Y-33241534D01*
X63778673Y-33284089D01*
X63782166Y-33332630D01*
X63782775Y-33382999D01*
X63780633Y-33431038D01*
X63775876Y-33472590D01*
X63768636Y-33503497D01*
X63763355Y-33514905D01*
X63749086Y-33536681D01*
X62950853Y-33536681D01*
X62951158Y-33573575D01*
X62959673Y-33656333D01*
X62983001Y-33733712D01*
X63019917Y-33803660D01*
X63069197Y-33864123D01*
X63129617Y-33913049D01*
X63165920Y-33933690D01*
X63194396Y-33947478D01*
X63216778Y-33956715D01*
X63237826Y-33962312D01*
X63262302Y-33965181D01*
X63294966Y-33966233D01*
X63336685Y-33966380D01*
X63382502Y-33966056D01*
X63415514Y-33964620D01*
X63440274Y-33961375D01*
X63461332Y-33955626D01*
X63483242Y-33946676D01*
X63492023Y-33942626D01*
X63528029Y-33922771D01*
X63569747Y-33895265D01*
X63611452Y-33864290D01*
X63647418Y-33834027D01*
X63666194Y-33815417D01*
X63683853Y-33801128D01*
X63702374Y-33799219D01*
X63725019Y-33810277D01*
X63750209Y-33830542D01*
X63787888Y-33863979D01*
X63757836Y-33913656D01*
X63699496Y-33994246D01*
X63630021Y-34062289D01*
X63550735Y-34116702D01*
X63462965Y-34156405D01*
X63458349Y-34157994D01*
X63422336Y-34169109D01*
X63388676Y-34176480D01*
X63351496Y-34180992D01*
X63304925Y-34183533D01*
X63285064Y-34184126D01*
X63239101Y-34184519D01*
X63194701Y-34183520D01*
X63157441Y-34181331D01*
X63135948Y-34178755D01*
X63064983Y-34160088D01*
X62991402Y-34130187D01*
X62922505Y-34092074D01*
X62915732Y-34087647D01*
X62846831Y-34031628D01*
X62788071Y-33962762D01*
X62740009Y-33882683D01*
X62703204Y-33793020D01*
X62678215Y-33695408D01*
X62665601Y-33591477D01*
X62665920Y-33482859D01*
X62676605Y-33389108D01*
X62678564Y-33380427D01*
X62950523Y-33380427D01*
X63187240Y-33380378D01*
X63253461Y-33380044D01*
X63314483Y-33379122D01*
X63367809Y-33377695D01*
X63410943Y-33375846D01*
X63441387Y-33373656D01*
X63455617Y-33371536D01*
X63487190Y-33356391D01*
X63507398Y-33330702D01*
X63517229Y-33292768D01*
X63518557Y-33263236D01*
X63509583Y-33201517D01*
X63484921Y-33144158D01*
X63446132Y-33093575D01*
X63394782Y-33052184D01*
X63374402Y-33040458D01*
X63329130Y-33024932D01*
X63275764Y-33019305D01*
X63220386Y-33023451D01*
X63169078Y-33037245D01*
X63151764Y-33045067D01*
X63094567Y-33083970D01*
X63044713Y-33136330D01*
X63004478Y-33198999D01*
X62976141Y-33268827D01*
X62968611Y-33298233D01*
X62962280Y-33327636D01*
X62956773Y-33352802D01*
X62954962Y-33360895D01*
X62950523Y-33380427D01*
X62678564Y-33380427D01*
X62698630Y-33291491D01*
X62731479Y-33205170D01*
G37*
G36*
X61932039Y-31642436D02*
G01*
X61953745Y-31659380D01*
X61985924Y-31684852D01*
X62025637Y-31716493D01*
X62069947Y-31751943D01*
X62115915Y-31788845D01*
X62160603Y-31824837D01*
X62201074Y-31857561D01*
X62234389Y-31884657D01*
X62257609Y-31903766D01*
X62260660Y-31906318D01*
X62277377Y-31919992D01*
X62301250Y-31939099D01*
X62316881Y-31951454D01*
X62355670Y-31981942D01*
X62416710Y-31948960D01*
X62456563Y-31928444D01*
X62502624Y-31906224D01*
X62544994Y-31887075D01*
X62545406Y-31886898D01*
X62613062Y-31857817D01*
X62868765Y-32113411D01*
X62923525Y-32168287D01*
X62974271Y-32219411D01*
X63019723Y-32265474D01*
X63058603Y-32305168D01*
X63089632Y-32337185D01*
X63111533Y-32360216D01*
X63123025Y-32372953D01*
X63124469Y-32375038D01*
X63116716Y-32379601D01*
X63096983Y-32384453D01*
X63083235Y-32386664D01*
X63047307Y-32393141D01*
X63000734Y-32403772D01*
X62949279Y-32417030D01*
X62898702Y-32431387D01*
X62854765Y-32445316D01*
X62834640Y-32452578D01*
X62782897Y-32474823D01*
X62725151Y-32503198D01*
X62669039Y-32533761D01*
X62624425Y-32561083D01*
X62580123Y-32590475D01*
X61659412Y-32590475D01*
X61645990Y-32569991D01*
X61631597Y-32550040D01*
X61620957Y-32537438D01*
X61611649Y-32526665D01*
X61593724Y-32505006D01*
X61569383Y-32475155D01*
X61540828Y-32439803D01*
X61525895Y-32421199D01*
X61492581Y-32379657D01*
X61459064Y-32337937D01*
X61428702Y-32300214D01*
X61404853Y-32270662D01*
X61399627Y-32264208D01*
X61376144Y-32234827D01*
X61354527Y-32207078D01*
X61339185Y-32186627D01*
X61338374Y-32185494D01*
X61319937Y-32159602D01*
X61878775Y-31601540D01*
X61932039Y-31642436D01*
G37*
G36*
X37172160Y-36595731D02*
G01*
X37189204Y-36558661D01*
X37216470Y-36528461D01*
X37251166Y-36506873D01*
X37264641Y-36501518D01*
X37279849Y-36497665D01*
X37299330Y-36494992D01*
X37325625Y-36493178D01*
X37361272Y-36491901D01*
X37371508Y-36491639D01*
X37463718Y-36489395D01*
X37463718Y-36453151D01*
X37461906Y-36426354D01*
X37456080Y-36408986D01*
X37452778Y-36404416D01*
X37433483Y-36390661D01*
X37406317Y-36381843D01*
X37374722Y-36377950D01*
X37342142Y-36378970D01*
X37312017Y-36384890D01*
X37287791Y-36395698D01*
X37277083Y-36405041D01*
X37271803Y-36409568D01*
X37265094Y-36409431D01*
X37254425Y-36403615D01*
X37237263Y-36391106D01*
X37231759Y-36386889D01*
X37213957Y-36372545D01*
X37200878Y-36360775D01*
X37195007Y-36353840D01*
X37194902Y-36353369D01*
X37200034Y-36343735D01*
X37213395Y-36330921D01*
X37231931Y-36317137D01*
X37252592Y-36304593D01*
X37272323Y-36295500D01*
X37276934Y-36293971D01*
X37310419Y-36287434D01*
X37350894Y-36284642D01*
X37393431Y-36285574D01*
X37433099Y-36290206D01*
X37453603Y-36294788D01*
X37486910Y-36308802D01*
X37516988Y-36330037D01*
X37540895Y-36355853D01*
X37555686Y-36383610D01*
X37556832Y-36387391D01*
X37558948Y-36401792D01*
X37560719Y-36427654D01*
X37562110Y-36463939D01*
X37563087Y-36509609D01*
X37563618Y-36563627D01*
X37563708Y-36598380D01*
X37563743Y-36784364D01*
X37463718Y-36784364D01*
X37463718Y-36745743D01*
X37444770Y-36761687D01*
X37425426Y-36774380D01*
X37404052Y-36783657D01*
X37402572Y-36784088D01*
X37371789Y-36789122D01*
X37335335Y-36789914D01*
X37299050Y-36786670D01*
X37268775Y-36779592D01*
X37268277Y-36779415D01*
X37228546Y-36759309D01*
X37197830Y-36731522D01*
X37176896Y-36697519D01*
X37166511Y-36658767D01*
X37167018Y-36635890D01*
X37263868Y-36635890D01*
X37268943Y-36660406D01*
X37283430Y-36678436D01*
X37302582Y-36687062D01*
X37320019Y-36690948D01*
X37329310Y-36693129D01*
X37347551Y-36694973D01*
X37371875Y-36694227D01*
X37397737Y-36691400D01*
X37420592Y-36687004D01*
X37435897Y-36681552D01*
X37436727Y-36681041D01*
X37452007Y-36665765D01*
X37460746Y-36643220D01*
X37463708Y-36611370D01*
X37463718Y-36608914D01*
X37463718Y-36578063D01*
X37385163Y-36578063D01*
X37342674Y-36578933D01*
X37311100Y-36582020D01*
X37288942Y-36588037D01*
X37274704Y-36597699D01*
X37266887Y-36611719D01*
X37263994Y-36630813D01*
X37263868Y-36635890D01*
X37167018Y-36635890D01*
X37167442Y-36616733D01*
X37172160Y-36595731D01*
G37*
G36*
X36641147Y-31789406D02*
G01*
X36691844Y-31789508D01*
X36732396Y-31789748D01*
X36763982Y-31790181D01*
X36787781Y-31790864D01*
X36804972Y-31791854D01*
X36816734Y-31793207D01*
X36824246Y-31794980D01*
X36828686Y-31797228D01*
X36831235Y-31800010D01*
X36832108Y-31801505D01*
X36834678Y-31810210D01*
X36839204Y-31829795D01*
X36845398Y-31858839D01*
X36852971Y-31895921D01*
X36861633Y-31939621D01*
X36871095Y-31988520D01*
X36881068Y-32041196D01*
X36882715Y-32050004D01*
X36892763Y-32102967D01*
X36902416Y-32152209D01*
X36911379Y-32196339D01*
X36919355Y-32233968D01*
X36926050Y-32263705D01*
X36931165Y-32284161D01*
X36934407Y-32293946D01*
X36934759Y-32294457D01*
X36943050Y-32299406D01*
X36961149Y-32308103D01*
X36987202Y-32319788D01*
X37019352Y-32333700D01*
X37055746Y-32349079D01*
X37094530Y-32365166D01*
X37133848Y-32381200D01*
X37171846Y-32396422D01*
X37206669Y-32410071D01*
X37236463Y-32421387D01*
X37259374Y-32429611D01*
X37273546Y-32433981D01*
X37276449Y-32434485D01*
X37285327Y-32431783D01*
X37302018Y-32423093D01*
X37326931Y-32408158D01*
X37360477Y-32386719D01*
X37403064Y-32358517D01*
X37455103Y-32323294D01*
X37485329Y-32302601D01*
X37537697Y-32266641D01*
X37580738Y-32237134D01*
X37615437Y-32213465D01*
X37642782Y-32195019D01*
X37663759Y-32181181D01*
X37679353Y-32171336D01*
X37690552Y-32164870D01*
X37698342Y-32161169D01*
X37703709Y-32159616D01*
X37707639Y-32159597D01*
X37711120Y-32160499D01*
X37712570Y-32160967D01*
X37720560Y-32166500D01*
X37735784Y-32179775D01*
X37757068Y-32199596D01*
X37783237Y-32224767D01*
X37813115Y-32254092D01*
X37845527Y-32286373D01*
X37879298Y-32320415D01*
X37913254Y-32355023D01*
X37946218Y-32388999D01*
X37977015Y-32421147D01*
X38004472Y-32450271D01*
X38027411Y-32475176D01*
X38044659Y-32494664D01*
X38055040Y-32507539D01*
X38057615Y-32512199D01*
X38054175Y-32520076D01*
X38044375Y-32537008D01*
X38028993Y-32561784D01*
X38008809Y-32593195D01*
X37984600Y-32630031D01*
X37957147Y-32671082D01*
X37927227Y-32715138D01*
X37923207Y-32721009D01*
X37882854Y-32780317D01*
X37849586Y-32830165D01*
X37823476Y-32870440D01*
X37804595Y-32901026D01*
X37793018Y-32921809D01*
X37788815Y-32932674D01*
X37788798Y-32933039D01*
X37791265Y-32944109D01*
X37798147Y-32964451D01*
X37808667Y-32992271D01*
X37822049Y-33025776D01*
X37837517Y-33063174D01*
X37854294Y-33102672D01*
X37871604Y-33142476D01*
X37888669Y-33180794D01*
X37904714Y-33215833D01*
X37918962Y-33245799D01*
X37930636Y-33268900D01*
X37938960Y-33283343D01*
X37942200Y-33287235D01*
X37951142Y-33290301D01*
X37970912Y-33295253D01*
X38000031Y-33301780D01*
X38037017Y-33309570D01*
X38080392Y-33318311D01*
X38128676Y-33327689D01*
X38176633Y-33336699D01*
X38228208Y-33346325D01*
X38276311Y-33355474D01*
X38319453Y-33363851D01*
X38356144Y-33371158D01*
X38384892Y-33377099D01*
X38404209Y-33381378D01*
X38412389Y-33383600D01*
X38426455Y-33389510D01*
X38426455Y-33639037D01*
X38426424Y-33701644D01*
X38426298Y-33752903D01*
X38426026Y-33793969D01*
X38425559Y-33825997D01*
X38424848Y-33850144D01*
X38423842Y-33867563D01*
X38422492Y-33879409D01*
X38420748Y-33886839D01*
X38418561Y-33891007D01*
X38415881Y-33893069D01*
X38415515Y-33893233D01*
X38407027Y-33895428D01*
X38387696Y-33899615D01*
X38358973Y-33905504D01*
X38322310Y-33912806D01*
X38279156Y-33921233D01*
X38230964Y-33930496D01*
X38179886Y-33940173D01*
X38117302Y-33952073D01*
X38066124Y-33962106D01*
X38025429Y-33970480D01*
X37994294Y-33977406D01*
X37971796Y-33983095D01*
X37957011Y-33987757D01*
X37949017Y-33991601D01*
X37947399Y-33993108D01*
X37943171Y-34001448D01*
X37934987Y-34019875D01*
X37923493Y-34046850D01*
X37909333Y-34080836D01*
X37893154Y-34120294D01*
X37875600Y-34163684D01*
X37869757Y-34178250D01*
X37846766Y-34236390D01*
X37828743Y-34283565D01*
X37815535Y-34320215D01*
X37806988Y-34346780D01*
X37802947Y-34363701D01*
X37802675Y-34369813D01*
X37806784Y-34378820D01*
X37817228Y-34396777D01*
X37833175Y-34422391D01*
X37853791Y-34454366D01*
X37878245Y-34491409D01*
X37905704Y-34532226D01*
X37931526Y-34570001D01*
X37960757Y-34612746D01*
X37987592Y-34652557D01*
X38011223Y-34688192D01*
X38030844Y-34718411D01*
X38045648Y-34741972D01*
X38054828Y-34757635D01*
X38057615Y-34763948D01*
X38053317Y-34770628D01*
X38041062Y-34785065D01*
X38021804Y-34806246D01*
X37996498Y-34833158D01*
X37966098Y-34864790D01*
X37931561Y-34900130D01*
X37893840Y-34938165D01*
X37883656Y-34948343D01*
X37838398Y-34993362D01*
X37801083Y-35030140D01*
X37770928Y-35059390D01*
X37747149Y-35081827D01*
X37728962Y-35098161D01*
X37715583Y-35109106D01*
X37706229Y-35115376D01*
X37700115Y-35117681D01*
X37697673Y-35117458D01*
X37689838Y-35112975D01*
X37672983Y-35102229D01*
X37648375Y-35086066D01*
X37617281Y-35065330D01*
X37580970Y-35040865D01*
X37540708Y-35013514D01*
X37504985Y-34989082D01*
X37462442Y-34960128D01*
X37422776Y-34933574D01*
X37387250Y-34910232D01*
X37357128Y-34890915D01*
X37333673Y-34876434D01*
X37318149Y-34867601D01*
X37312152Y-34865141D01*
X37302529Y-34867990D01*
X37284245Y-34875827D01*
X37259579Y-34887591D01*
X37230814Y-34902219D01*
X37217747Y-34909128D01*
X37188011Y-34924520D01*
X37161454Y-34937313D01*
X37140329Y-34946494D01*
X37126887Y-34951047D01*
X37123996Y-34951325D01*
X37120606Y-34948452D01*
X37115281Y-34940185D01*
X37107738Y-34925879D01*
X37097691Y-34904888D01*
X37084857Y-34876569D01*
X37068951Y-34840276D01*
X37049691Y-34795365D01*
X37026790Y-34741190D01*
X36999967Y-34677107D01*
X36968935Y-34602472D01*
X36947390Y-34550449D01*
X36919701Y-34483343D01*
X36893469Y-34419434D01*
X36869081Y-34359689D01*
X36846927Y-34305076D01*
X36827393Y-34256561D01*
X36810869Y-34215111D01*
X36797743Y-34181694D01*
X36788403Y-34157276D01*
X36783237Y-34142824D01*
X36782301Y-34139273D01*
X36787759Y-34127847D01*
X36802657Y-34114321D01*
X36808870Y-34110067D01*
X36826656Y-34098132D01*
X36850060Y-34081793D01*
X36874684Y-34064131D01*
X36880392Y-34059960D01*
X36941133Y-34007961D01*
X36992184Y-33948842D01*
X37033213Y-33883777D01*
X37063886Y-33813939D01*
X37083874Y-33740501D01*
X37092842Y-33664636D01*
X37090458Y-33587516D01*
X37076391Y-33510314D01*
X37054669Y-33444684D01*
X37035103Y-33401811D01*
X37012112Y-33363186D01*
X36983393Y-33325485D01*
X36946644Y-33285386D01*
X36938589Y-33277248D01*
X36883189Y-33227993D01*
X36825487Y-33189533D01*
X36762639Y-33160173D01*
X36716660Y-33144870D01*
X36671965Y-33135565D01*
X36619790Y-33130421D01*
X36564444Y-33129439D01*
X36510236Y-33132619D01*
X36461475Y-33139961D01*
X36441592Y-33144870D01*
X36367943Y-33172327D01*
X36299930Y-33210104D01*
X36238567Y-33257119D01*
X36184869Y-33312286D01*
X36139850Y-33374523D01*
X36104525Y-33442745D01*
X36079907Y-33515870D01*
X36075233Y-33536288D01*
X36065205Y-33614841D01*
X36067194Y-33692763D01*
X36080726Y-33768831D01*
X36105328Y-33841825D01*
X36140528Y-33910520D01*
X36185853Y-33973696D01*
X36240829Y-34030131D01*
X36277860Y-34059960D01*
X36302114Y-34077478D01*
X36326222Y-34094425D01*
X36345788Y-34107721D01*
X36349382Y-34110067D01*
X36366766Y-34123750D01*
X36375398Y-34136090D01*
X36375951Y-34139273D01*
X36373612Y-34146954D01*
X36366855Y-34165210D01*
X36356067Y-34193075D01*
X36341637Y-34229580D01*
X36323953Y-34273760D01*
X36303403Y-34324647D01*
X36280376Y-34381273D01*
X36255260Y-34442673D01*
X36228443Y-34507880D01*
X36210862Y-34550449D01*
X36177071Y-34631973D01*
X36147664Y-34702543D01*
X36122357Y-34762804D01*
X36100866Y-34813400D01*
X36082907Y-34854977D01*
X36068197Y-34888179D01*
X36056450Y-34913651D01*
X36047383Y-34932039D01*
X36040712Y-34943986D01*
X36036152Y-34950138D01*
X36034256Y-34951325D01*
X36024888Y-34949117D01*
X36006850Y-34941838D01*
X35982394Y-34930502D01*
X35953773Y-34916123D01*
X35940504Y-34909128D01*
X35910676Y-34893594D01*
X35883967Y-34880468D01*
X35862659Y-34870812D01*
X35849031Y-34865687D01*
X35846100Y-34865141D01*
X35838246Y-34868579D01*
X35821396Y-34878350D01*
X35796813Y-34893642D01*
X35765761Y-34913644D01*
X35729503Y-34937542D01*
X35689302Y-34964526D01*
X35653267Y-34989082D01*
X35610677Y-35018193D01*
X35570980Y-35045125D01*
X35535443Y-35069033D01*
X35505333Y-35089073D01*
X35481918Y-35104400D01*
X35466464Y-35114169D01*
X35460578Y-35117458D01*
X35456034Y-35117190D01*
X35448720Y-35113387D01*
X35437852Y-35105336D01*
X35422647Y-35092324D01*
X35402321Y-35073638D01*
X35376090Y-35048566D01*
X35343169Y-35016395D01*
X35302776Y-34976412D01*
X35274595Y-34948343D01*
X35236205Y-34909775D01*
X35200750Y-34873639D01*
X35169186Y-34840948D01*
X35142468Y-34812715D01*
X35121549Y-34789950D01*
X35107386Y-34773668D01*
X35100934Y-34764879D01*
X35100637Y-34763948D01*
X35104080Y-34756434D01*
X35113871Y-34739907D01*
X35129204Y-34715609D01*
X35149271Y-34684781D01*
X35173266Y-34648662D01*
X35200383Y-34608495D01*
X35226726Y-34570001D01*
X35256129Y-34526944D01*
X35283256Y-34486529D01*
X35307274Y-34450050D01*
X35327351Y-34418802D01*
X35342653Y-34394078D01*
X35352348Y-34377173D01*
X35355576Y-34369813D01*
X35354435Y-34359039D01*
X35348889Y-34338911D01*
X35338786Y-34308990D01*
X35323969Y-34268836D01*
X35304286Y-34218008D01*
X35288495Y-34178250D01*
X35270635Y-34133920D01*
X35253942Y-34093027D01*
X35239062Y-34057110D01*
X35226638Y-34027708D01*
X35217317Y-34006358D01*
X35211744Y-33994600D01*
X35210853Y-33993108D01*
X35205591Y-33989560D01*
X35193950Y-33985289D01*
X35175007Y-33980085D01*
X35147839Y-33973736D01*
X35111523Y-33966034D01*
X35065136Y-33956767D01*
X35007755Y-33945726D01*
X34978366Y-33940173D01*
X34926623Y-33930369D01*
X34878488Y-33921116D01*
X34835411Y-33912702D01*
X34798843Y-33905416D01*
X34770235Y-33899547D01*
X34751039Y-33895385D01*
X34742736Y-33893233D01*
X34739992Y-33891351D01*
X34737747Y-33887504D01*
X34735952Y-33880537D01*
X34734556Y-33869295D01*
X34733511Y-33852623D01*
X34732766Y-33829366D01*
X34732272Y-33798368D01*
X34731979Y-33758474D01*
X34731837Y-33708530D01*
X34731797Y-33647380D01*
X34731796Y-33639037D01*
X34731796Y-33389510D01*
X34745862Y-33383600D01*
X34755116Y-33381125D01*
X34775181Y-33376713D01*
X34804568Y-33370660D01*
X34841787Y-33363264D01*
X34885347Y-33354820D01*
X34933759Y-33345626D01*
X34981618Y-33336699D01*
X35033136Y-33327008D01*
X35081120Y-33317665D01*
X35124090Y-33308982D01*
X35160567Y-33301271D01*
X35189070Y-33294846D01*
X35208119Y-33290017D01*
X35216051Y-33287235D01*
X35221787Y-33279366D01*
X35231377Y-33261676D01*
X35244044Y-33235958D01*
X35259012Y-33204004D01*
X35275504Y-33167609D01*
X35292744Y-33128564D01*
X35309955Y-33088663D01*
X35326360Y-33049699D01*
X35341183Y-33013465D01*
X35353648Y-32981753D01*
X35362978Y-32956357D01*
X35368397Y-32939070D01*
X35369453Y-32933039D01*
X35365739Y-32922831D01*
X35354645Y-32902699D01*
X35336244Y-32872756D01*
X35310608Y-32833116D01*
X35277810Y-32783896D01*
X35237922Y-32725208D01*
X35235045Y-32721009D01*
X35204863Y-32676652D01*
X35177045Y-32635143D01*
X35152372Y-32597693D01*
X35131622Y-32565510D01*
X35115573Y-32539805D01*
X35105005Y-32521787D01*
X35100697Y-32512667D01*
X35100637Y-32512199D01*
X35104916Y-32505244D01*
X35116968Y-32490754D01*
X35135619Y-32469924D01*
X35159693Y-32443950D01*
X35188016Y-32414030D01*
X35219412Y-32381359D01*
X35252706Y-32347134D01*
X35286722Y-32312550D01*
X35320287Y-32278804D01*
X35352224Y-32247093D01*
X35381359Y-32218611D01*
X35406516Y-32194557D01*
X35426520Y-32176125D01*
X35440196Y-32164512D01*
X35445682Y-32160967D01*
X35449344Y-32159885D01*
X35453143Y-32159541D01*
X35458065Y-32160549D01*
X35465096Y-32163523D01*
X35475224Y-32169079D01*
X35489434Y-32177831D01*
X35508712Y-32190393D01*
X35534047Y-32207381D01*
X35566424Y-32229409D01*
X35606830Y-32257091D01*
X35656252Y-32291042D01*
X35673606Y-32302970D01*
X35730558Y-32341858D01*
X35777848Y-32373582D01*
X35815878Y-32398396D01*
X35845052Y-32416554D01*
X35865772Y-32428311D01*
X35878440Y-32433922D01*
X35881797Y-32434505D01*
X35891764Y-32431986D01*
X35911254Y-32425293D01*
X35938412Y-32415186D01*
X35971379Y-32402425D01*
X36008298Y-32387772D01*
X36047311Y-32371987D01*
X36086561Y-32355832D01*
X36124190Y-32340066D01*
X36158340Y-32325451D01*
X36187153Y-32312748D01*
X36208773Y-32302716D01*
X36221342Y-32296118D01*
X36223437Y-32294591D01*
X36226367Y-32286782D01*
X36231213Y-32268058D01*
X36237680Y-32239812D01*
X36245470Y-32203436D01*
X36254288Y-32160320D01*
X36263836Y-32111856D01*
X36273818Y-32059436D01*
X36275559Y-32050108D01*
X36285562Y-31996957D01*
X36295106Y-31947349D01*
X36303901Y-31902706D01*
X36311659Y-31864450D01*
X36318091Y-31834002D01*
X36322906Y-31812783D01*
X36325818Y-31802217D01*
X36326087Y-31801610D01*
X36328149Y-31798535D01*
X36331509Y-31796024D01*
X36337345Y-31794019D01*
X36346837Y-31792464D01*
X36361166Y-31791302D01*
X36381510Y-31790476D01*
X36409048Y-31789928D01*
X36444962Y-31789603D01*
X36490430Y-31789442D01*
X36546631Y-31789388D01*
X36579126Y-31789385D01*
X36641147Y-31789406D01*
G37*
G36*
X35183894Y-35619101D02*
G01*
X35205798Y-35578073D01*
X35226152Y-35553288D01*
X35262052Y-35525782D01*
X35303372Y-35508143D01*
X35347907Y-35500332D01*
X35393448Y-35502312D01*
X35437787Y-35514044D01*
X35478717Y-35535489D01*
X35506090Y-35558165D01*
X35532648Y-35590759D01*
X35551600Y-35628594D01*
X35563514Y-35673407D01*
X35568960Y-35726930D01*
X35569455Y-35751297D01*
X35569502Y-35790369D01*
X35256359Y-35790369D01*
X35260532Y-35813812D01*
X35271862Y-35849670D01*
X35291116Y-35878031D01*
X35316314Y-35896645D01*
X35352809Y-35907639D01*
X35392307Y-35907834D01*
X35432179Y-35897592D01*
X35469796Y-35877275D01*
X35472864Y-35875052D01*
X35480121Y-35870788D01*
X35487438Y-35870842D01*
X35497584Y-35876362D01*
X35513330Y-35888494D01*
X35521488Y-35895185D01*
X35557349Y-35924777D01*
X35528857Y-35950966D01*
X35506872Y-35968007D01*
X35481673Y-35983062D01*
X35467701Y-35989376D01*
X35432580Y-35999114D01*
X35392941Y-36004766D01*
X35354307Y-36005811D01*
X35326516Y-36002715D01*
X35283452Y-35988874D01*
X35244373Y-35966949D01*
X35221209Y-35947443D01*
X35195244Y-35912730D01*
X35176207Y-35870000D01*
X35164068Y-35821625D01*
X35158797Y-35769975D01*
X35160364Y-35717424D01*
X35161729Y-35709099D01*
X35257238Y-35709099D01*
X35463226Y-35709099D01*
X35463226Y-35691328D01*
X35458339Y-35667179D01*
X35445667Y-35641635D01*
X35428195Y-35619653D01*
X35413156Y-35608170D01*
X35384414Y-35598494D01*
X35352499Y-35596741D01*
X35322371Y-35602794D01*
X35306299Y-35610720D01*
X35284016Y-35632597D01*
X35267796Y-35663361D01*
X35260906Y-35688781D01*
X35257238Y-35709099D01*
X35161729Y-35709099D01*
X35168740Y-35666342D01*
X35183894Y-35619101D01*
G37*
G36*
X34794312Y-35502798D02*
G01*
X34794312Y-35551965D01*
X34825362Y-35531070D01*
X34865543Y-35510547D01*
X34907145Y-35500892D01*
X34948346Y-35501514D01*
X34987328Y-35511821D01*
X35022270Y-35531222D01*
X35051352Y-35559125D01*
X35072756Y-35594939D01*
X35079452Y-35613668D01*
X35083827Y-35636517D01*
X35086986Y-35668754D01*
X35088928Y-35707334D01*
X35089651Y-35749209D01*
X35089156Y-35791333D01*
X35087441Y-35830661D01*
X35084505Y-35864146D01*
X35080348Y-35888742D01*
X35079536Y-35891763D01*
X35062086Y-35930746D01*
X35035496Y-35962870D01*
X35001758Y-35986972D01*
X34962864Y-36001887D01*
X34920806Y-36006451D01*
X34889771Y-36002693D01*
X34867560Y-35995327D01*
X34842338Y-35983433D01*
X34827132Y-35974443D01*
X34794312Y-35952781D01*
X34794312Y-36143886D01*
X34794410Y-36199612D01*
X34794734Y-36243893D01*
X34795329Y-36277785D01*
X34796239Y-36302346D01*
X34797508Y-36318631D01*
X34799180Y-36327698D01*
X34801299Y-36330602D01*
X34802126Y-36330376D01*
X34812225Y-36323746D01*
X34826666Y-36313586D01*
X34828695Y-36312116D01*
X34864462Y-36293430D01*
X34904609Y-36284657D01*
X34946208Y-36285566D01*
X34986329Y-36295927D01*
X35022044Y-36315508D01*
X35037206Y-36328557D01*
X35049897Y-36341460D01*
X35060116Y-36353126D01*
X35068145Y-36365054D01*
X35074265Y-36378744D01*
X35078760Y-36395694D01*
X35081912Y-36417404D01*
X35084002Y-36445373D01*
X35085314Y-36481100D01*
X35086129Y-36526085D01*
X35086729Y-36581827D01*
X35086827Y-36592129D01*
X35088646Y-36784364D01*
X34988109Y-36784364D01*
X34988100Y-36620261D01*
X34987966Y-36565995D01*
X34987397Y-36522721D01*
X34986127Y-36488927D01*
X34983893Y-36463103D01*
X34980429Y-36443738D01*
X34975472Y-36429322D01*
X34968756Y-36418344D01*
X34960018Y-36409294D01*
X34949751Y-36401214D01*
X34922380Y-36388325D01*
X34891479Y-36385062D01*
X34860488Y-36390771D01*
X34832851Y-36404799D01*
X34812008Y-36426494D01*
X34811397Y-36427461D01*
X34807203Y-36434706D01*
X34803920Y-36442412D01*
X34801413Y-36452172D01*
X34799549Y-36465577D01*
X34798195Y-36484222D01*
X34797217Y-36509697D01*
X34796481Y-36543597D01*
X34795855Y-36587512D01*
X34795502Y-36617135D01*
X34793566Y-36784364D01*
X34694287Y-36784364D01*
X34694287Y-35765623D01*
X34793912Y-35765623D01*
X34797243Y-35805414D01*
X34805033Y-35841046D01*
X34817301Y-35869379D01*
X34823296Y-35877764D01*
X34843881Y-35893372D01*
X34871349Y-35902293D01*
X34901777Y-35904127D01*
X34931244Y-35898480D01*
X34948309Y-35890429D01*
X34961924Y-35880073D01*
X34971790Y-35867347D01*
X34978468Y-35850193D01*
X34982518Y-35826556D01*
X34984502Y-35794380D01*
X34984984Y-35755986D01*
X34984699Y-35718724D01*
X34983677Y-35691514D01*
X34981669Y-35671916D01*
X34978425Y-35657489D01*
X34973714Y-35645828D01*
X34957298Y-35622914D01*
X34934605Y-35609064D01*
X34904142Y-35603596D01*
X34881847Y-35604032D01*
X34859125Y-35606336D01*
X34844522Y-35610372D01*
X34833655Y-35617959D01*
X34824800Y-35627694D01*
X34810484Y-35652709D01*
X34800551Y-35686130D01*
X34795021Y-35724815D01*
X34793912Y-35765623D01*
X34694287Y-35765623D01*
X34694287Y-35502798D01*
X34794312Y-35502798D01*
G37*
G36*
X36564993Y-35500866D02*
G01*
X36600637Y-35506275D01*
X36633668Y-35513958D01*
X36656464Y-35521902D01*
X36680117Y-35533462D01*
X36701322Y-35545807D01*
X36717357Y-35557151D01*
X36725498Y-35565712D01*
X36725994Y-35567442D01*
X36722224Y-35574483D01*
X36712270Y-35588032D01*
X36698238Y-35605233D01*
X36697362Y-35606261D01*
X36668687Y-35639826D01*
X36633984Y-35620241D01*
X36603154Y-35607083D01*
X36568288Y-35598912D01*
X36533299Y-35596109D01*
X36502099Y-35599058D01*
X36483074Y-35605511D01*
X36463593Y-35620755D01*
X36453470Y-35639678D01*
X36452969Y-35659409D01*
X36462354Y-35677077D01*
X36475585Y-35687017D01*
X36490993Y-35692231D01*
X36513941Y-35696876D01*
X36539470Y-35699950D01*
X36539572Y-35699958D01*
X36591511Y-35705225D01*
X36632705Y-35712565D01*
X36664838Y-35722699D01*
X36689596Y-35736351D01*
X36708663Y-35754241D01*
X36723725Y-35777092D01*
X36724924Y-35779383D01*
X36736066Y-35811406D01*
X36740401Y-35847819D01*
X36737763Y-35883604D01*
X36729302Y-35911098D01*
X36707979Y-35942060D01*
X36676943Y-35967812D01*
X36638152Y-35987634D01*
X36593563Y-36000800D01*
X36545133Y-36006589D01*
X36494821Y-36004276D01*
X36482227Y-36002356D01*
X36457655Y-35996252D01*
X36429134Y-35986572D01*
X36408164Y-35977800D01*
X36385295Y-35965956D01*
X36362422Y-35952200D01*
X36342168Y-35938355D01*
X36327159Y-35926242D01*
X36320020Y-35917685D01*
X36319766Y-35916437D01*
X36324172Y-35910578D01*
X36335719Y-35898995D01*
X36352020Y-35884063D01*
X36354092Y-35882239D01*
X36388338Y-35852204D01*
X36416459Y-35871552D01*
X36454532Y-35893264D01*
X36493364Y-35905304D01*
X36537777Y-35909144D01*
X36539478Y-35909148D01*
X36580015Y-35906206D01*
X36609687Y-35897297D01*
X36628679Y-35882300D01*
X36637179Y-35861094D01*
X36637327Y-35845399D01*
X36633565Y-35830105D01*
X36624649Y-35818542D01*
X36608918Y-35809940D01*
X36584711Y-35803525D01*
X36550366Y-35798527D01*
X36532439Y-35796656D01*
X36481491Y-35789892D01*
X36441236Y-35780022D01*
X36410083Y-35766253D01*
X36386437Y-35747793D01*
X36368707Y-35723849D01*
X36362760Y-35712225D01*
X36355509Y-35689819D01*
X36351411Y-35664215D01*
X36351082Y-35656686D01*
X36356006Y-35612007D01*
X36371189Y-35574461D01*
X36396596Y-35544083D01*
X36432194Y-35520908D01*
X36477948Y-35504969D01*
X36504966Y-35499672D01*
X36531511Y-35498432D01*
X36564993Y-35500866D01*
G37*
G36*
X34207924Y-35655908D02*
G01*
X34218378Y-35620103D01*
X34234249Y-35589849D01*
X34256248Y-35562975D01*
X34265719Y-35553789D01*
X34305089Y-35525134D01*
X34348116Y-35507034D01*
X34393003Y-35499129D01*
X34437955Y-35501056D01*
X34481176Y-35512456D01*
X34520871Y-35532967D01*
X34555243Y-35562228D01*
X34582497Y-35599878D01*
X34591926Y-35619377D01*
X34599106Y-35644811D01*
X34604084Y-35679300D01*
X34606863Y-35719595D01*
X34607445Y-35762443D01*
X34605834Y-35804595D01*
X34602031Y-35842798D01*
X34596041Y-35873802D01*
X34591695Y-35886896D01*
X34569178Y-35926289D01*
X34538097Y-35959732D01*
X34501070Y-35984783D01*
X34475483Y-35995277D01*
X34438255Y-36003121D01*
X34397686Y-36005788D01*
X34362458Y-36003036D01*
X34317470Y-35988863D01*
X34276457Y-35963032D01*
X34260899Y-35949091D01*
X34237617Y-35921840D01*
X34220568Y-35891065D01*
X34209113Y-35854692D01*
X34202611Y-35810644D01*
X34200424Y-35756846D01*
X34200416Y-35752860D01*
X34303566Y-35752860D01*
X34304347Y-35793214D01*
X34307187Y-35823524D01*
X34312830Y-35846180D01*
X34322023Y-35863574D01*
X34335509Y-35878094D01*
X34344969Y-35885678D01*
X34372617Y-35899083D01*
X34405090Y-35903697D01*
X34438301Y-35899496D01*
X34468158Y-35886454D01*
X34468193Y-35886431D01*
X34483929Y-35871791D01*
X34495182Y-35850494D01*
X34502390Y-35821015D01*
X34505991Y-35781827D01*
X34506604Y-35752622D01*
X34506359Y-35719832D01*
X34505189Y-35696421D01*
X34502657Y-35679273D01*
X34498328Y-35665271D01*
X34492675Y-35653059D01*
X34473162Y-35627171D01*
X34447431Y-35610271D01*
X34417961Y-35602361D01*
X34387228Y-35603446D01*
X34357709Y-35613528D01*
X34331882Y-35632609D01*
X34316407Y-35652856D01*
X34310893Y-35663818D01*
X34307198Y-35676236D01*
X34304976Y-35692807D01*
X34303882Y-35716228D01*
X34303568Y-35749198D01*
X34303566Y-35752860D01*
X34200416Y-35752860D01*
X34202174Y-35699437D01*
X34207924Y-35655908D01*
G37*
G36*
X38044023Y-36385243D02*
G01*
X38071117Y-36345736D01*
X38105701Y-36315773D01*
X38147421Y-36295742D01*
X38195924Y-36286027D01*
X38202192Y-36285572D01*
X38254552Y-36287762D01*
X38300924Y-36300766D01*
X38340865Y-36324336D01*
X38373934Y-36358225D01*
X38395860Y-36394040D01*
X38404994Y-36413609D01*
X38411105Y-36430495D01*
X38414949Y-36448369D01*
X38417280Y-36470901D01*
X38418853Y-36501763D01*
X38419051Y-36506836D01*
X38421777Y-36578063D01*
X38112232Y-36578063D01*
X38115723Y-36604091D01*
X38125956Y-36635845D01*
X38146246Y-36662784D01*
X38174449Y-36682814D01*
X38207567Y-36693702D01*
X38235311Y-36693929D01*
X38267054Y-36687553D01*
X38297300Y-36676108D01*
X38318837Y-36662629D01*
X38337080Y-36647278D01*
X38370828Y-36675952D01*
X38387777Y-36690762D01*
X38400471Y-36702625D01*
X38406301Y-36709097D01*
X38406374Y-36709256D01*
X38403209Y-36716774D01*
X38391698Y-36728394D01*
X38374413Y-36742124D01*
X38353925Y-36755974D01*
X38332807Y-36767955D01*
X38326716Y-36770895D01*
X38295620Y-36781135D01*
X38258094Y-36787480D01*
X38218902Y-36789604D01*
X38182808Y-36787181D01*
X38160765Y-36782229D01*
X38120568Y-36765912D01*
X38089273Y-36745475D01*
X38063364Y-36718242D01*
X38048506Y-36696842D01*
X38029988Y-36657828D01*
X38017521Y-36610463D01*
X38011588Y-36557588D01*
X38012669Y-36502044D01*
X38013715Y-36491349D01*
X38013871Y-36490541D01*
X38112232Y-36490541D01*
X38319867Y-36490541D01*
X38315995Y-36470224D01*
X38303943Y-36433287D01*
X38284100Y-36405292D01*
X38257408Y-36387018D01*
X38224808Y-36379240D01*
X38206083Y-36379577D01*
X38171879Y-36388467D01*
X38144280Y-36407012D01*
X38124919Y-36433679D01*
X38115723Y-36464513D01*
X38112232Y-36490541D01*
X38013871Y-36490541D01*
X38024771Y-36433909D01*
X38044023Y-36385243D01*
G37*
G36*
X37964657Y-36295579D02*
G01*
X38000685Y-36314426D01*
X38003377Y-36319283D01*
X38000490Y-36327879D01*
X37991049Y-36341992D01*
X37974080Y-36363397D01*
X37973301Y-36364346D01*
X37937206Y-36408221D01*
X37912728Y-36395462D01*
X37881401Y-36385525D01*
X37849879Y-36386753D01*
X37820887Y-36398292D01*
X37797153Y-36419290D01*
X37787245Y-36434722D01*
X37783882Y-36442595D01*
X37781277Y-36452474D01*
X37779335Y-36465944D01*
X37777964Y-36484591D01*
X37777070Y-36510000D01*
X37776559Y-36543757D01*
X37776338Y-36587446D01*
X37776305Y-36620261D01*
X37776295Y-36784364D01*
X37676271Y-36784364D01*
X37676271Y-36290492D01*
X37776295Y-36290492D01*
X37776295Y-36334889D01*
X37798163Y-36318210D01*
X37836140Y-36296756D01*
X37878323Y-36285800D01*
X37922050Y-36285391D01*
X37964657Y-36295579D01*
G37*
G36*
X38047295Y-35501486D02*
G01*
X38084683Y-35509594D01*
X38112158Y-35522421D01*
X38132720Y-35535129D01*
X38120520Y-35551784D01*
X38109374Y-35566055D01*
X38094083Y-35584505D01*
X38084309Y-35595863D01*
X38060297Y-35623286D01*
X38040512Y-35613054D01*
X38015575Y-35605096D01*
X37986885Y-35603181D01*
X37959775Y-35607232D01*
X37943180Y-35614468D01*
X37932270Y-35621898D01*
X37923622Y-35629178D01*
X37916943Y-35637801D01*
X37911940Y-35649263D01*
X37908320Y-35665055D01*
X37905791Y-35686674D01*
X37904058Y-35715612D01*
X37902830Y-35753364D01*
X37901813Y-35801424D01*
X37901326Y-35827878D01*
X37898200Y-35999796D01*
X37846625Y-36001611D01*
X37795050Y-36003427D01*
X37795050Y-35502293D01*
X37846625Y-35504108D01*
X37898200Y-35505924D01*
X37901326Y-35530400D01*
X37903804Y-35545413D01*
X37906912Y-35549819D01*
X37912185Y-35545481D01*
X37912969Y-35544542D01*
X37938175Y-35523131D01*
X37970995Y-35508593D01*
X38008384Y-35501265D01*
X38047295Y-35501486D01*
G37*
G36*
X35175497Y-36577197D02*
G01*
X35193051Y-36545966D01*
X35204538Y-36533071D01*
X35221312Y-36519137D01*
X35239137Y-36508814D01*
X35260320Y-36501508D01*
X35287170Y-36496623D01*
X35321996Y-36493565D01*
X35364765Y-36491805D01*
X35456975Y-36489179D01*
X35456975Y-36455065D01*
X35455762Y-36433354D01*
X35452660Y-36415205D01*
X35450220Y-36408331D01*
X35436268Y-36394349D01*
X35412852Y-36384125D01*
X35382706Y-36378657D01*
X35367310Y-36378014D01*
X35332413Y-36379474D01*
X35306847Y-36384342D01*
X35287730Y-36393351D01*
X35278723Y-36400518D01*
X35262834Y-36415244D01*
X35225496Y-36386248D01*
X35207604Y-36371767D01*
X35194389Y-36359955D01*
X35188307Y-36353031D01*
X35188159Y-36352491D01*
X35192539Y-36346123D01*
X35203830Y-36334729D01*
X35214560Y-36325132D01*
X35240909Y-36306543D01*
X35270575Y-36294034D01*
X35305985Y-36287008D01*
X35349568Y-36284870D01*
X35375980Y-36285479D01*
X35408514Y-36287268D01*
X35432330Y-36289986D01*
X35451213Y-36294373D01*
X35468947Y-36301171D01*
X35478099Y-36305477D01*
X35512718Y-36327763D01*
X35537557Y-36356681D01*
X35551002Y-36384265D01*
X35553708Y-36395811D01*
X35555988Y-36415444D01*
X35557887Y-36444040D01*
X35559452Y-36482473D01*
X35560725Y-36531620D01*
X35561753Y-36592355D01*
X35561792Y-36595255D01*
X35564349Y-36784364D01*
X35456975Y-36784364D01*
X35456975Y-36745743D01*
X35438026Y-36761687D01*
X35418683Y-36774380D01*
X35397309Y-36783657D01*
X35395828Y-36784088D01*
X35366599Y-36788875D01*
X35331582Y-36789812D01*
X35296842Y-36787020D01*
X35271455Y-36781616D01*
X35231089Y-36763586D01*
X35198420Y-36737802D01*
X35175078Y-36705757D01*
X35166723Y-36685740D01*
X35161322Y-36651167D01*
X35162501Y-36637599D01*
X35257257Y-36637599D01*
X35264156Y-36658733D01*
X35279535Y-36676711D01*
X35302359Y-36688911D01*
X35310418Y-36691036D01*
X35329672Y-36693214D01*
X35355293Y-36693796D01*
X35382829Y-36692946D01*
X35407831Y-36690827D01*
X35425845Y-36687600D01*
X35428549Y-36686712D01*
X35441665Y-36675439D01*
X35451275Y-36654494D01*
X35456396Y-36626452D01*
X35456975Y-36612272D01*
X35456975Y-36577094D01*
X35373063Y-36579141D01*
X35338897Y-36580111D01*
X35314852Y-36581340D01*
X35298551Y-36583238D01*
X35287613Y-36586213D01*
X35279659Y-36590676D01*
X35273039Y-36596344D01*
X35259873Y-36615929D01*
X35257257Y-36637599D01*
X35162501Y-36637599D01*
X35164583Y-36613625D01*
X35175497Y-36577197D01*
G37*
G36*
X35910442Y-35502882D02*
G01*
X35946102Y-35513112D01*
X35953972Y-35516819D01*
X35988855Y-35539184D01*
X36014806Y-35567025D01*
X36033344Y-35599697D01*
X36037470Y-35609130D01*
X36040745Y-35618541D01*
X36043289Y-35629486D01*
X36045218Y-35643524D01*
X36046651Y-35662211D01*
X36047704Y-35687104D01*
X36048497Y-35719759D01*
X36049146Y-35761735D01*
X36049770Y-35814587D01*
X36049799Y-35817199D01*
X36051853Y-36003443D01*
X35999787Y-36001619D01*
X35947720Y-35999796D01*
X35944595Y-35831004D01*
X35943575Y-35779895D01*
X35942549Y-35739741D01*
X35941394Y-35708997D01*
X35939989Y-35686116D01*
X35938209Y-35669551D01*
X35935933Y-35657755D01*
X35933038Y-35649182D01*
X35929681Y-35642742D01*
X35909871Y-35619841D01*
X35883501Y-35606765D01*
X35851109Y-35602823D01*
X35817441Y-35606614D01*
X35791657Y-35618786D01*
X35771404Y-35640537D01*
X35768592Y-35644869D01*
X35764193Y-35652343D01*
X35760752Y-35659994D01*
X35758127Y-35669420D01*
X35756179Y-35682222D01*
X35754768Y-35700000D01*
X35753755Y-35724355D01*
X35752999Y-35756886D01*
X35752361Y-35799193D01*
X35751906Y-35835693D01*
X35749890Y-36002921D01*
X35650772Y-36002921D01*
X35650772Y-35502798D01*
X35750797Y-35502798D01*
X35750797Y-35527804D01*
X35752096Y-35545629D01*
X35756851Y-35551696D01*
X35766349Y-35546500D01*
X35775655Y-35537339D01*
X35801534Y-35518183D01*
X35834838Y-35505800D01*
X35872247Y-35500572D01*
X35910442Y-35502882D01*
G37*
G36*
X35954604Y-36294084D02*
G01*
X35968038Y-36299643D01*
X35985721Y-36308697D01*
X35997637Y-36316371D01*
X36000859Y-36320103D01*
X35997110Y-36326956D01*
X35987104Y-36340800D01*
X35972699Y-36359116D01*
X35966211Y-36367025D01*
X35931564Y-36408766D01*
X35911510Y-36396539D01*
X35882073Y-36385323D01*
X35851339Y-36385030D01*
X35822211Y-36394808D01*
X35797596Y-36413807D01*
X35783618Y-36434039D01*
X35779326Y-36443062D01*
X35776009Y-36452136D01*
X35773541Y-36462943D01*
X35771797Y-36477165D01*
X35770651Y-36496483D01*
X35769980Y-36522579D01*
X35769657Y-36557135D01*
X35769557Y-36601833D01*
X35769552Y-36623148D01*
X35769552Y-36784364D01*
X35669527Y-36784364D01*
X35669527Y-36290492D01*
X35769552Y-36290492D01*
X35769552Y-36341479D01*
X35794510Y-36320115D01*
X35829677Y-36297909D01*
X35869812Y-36285965D01*
X35912320Y-36284588D01*
X35954604Y-36294084D01*
G37*
G36*
X36010236Y-36540554D02*
G01*
X36010534Y-36489432D01*
X36011735Y-36448955D01*
X36014295Y-36417270D01*
X36018671Y-36392528D01*
X36025322Y-36372877D01*
X36034704Y-36356465D01*
X36047274Y-36341443D01*
X36063188Y-36326230D01*
X36094730Y-36302925D01*
X36128105Y-36289481D01*
X36167283Y-36284433D01*
X36176627Y-36284302D01*
X36204083Y-36287443D01*
X36233133Y-36295674D01*
X36259405Y-36307342D01*
X36278526Y-36320796D01*
X36281380Y-36323881D01*
X36290540Y-36332273D01*
X36295314Y-36334253D01*
X36297033Y-36328315D01*
X36298695Y-36311758D01*
X36300193Y-36286464D01*
X36301420Y-36254317D01*
X36302268Y-36217201D01*
X36302363Y-36210785D01*
X36304058Y-36087317D01*
X36352508Y-36085491D01*
X36400957Y-36083665D01*
X36400957Y-36784364D01*
X36300932Y-36784364D01*
X36300932Y-36762483D01*
X36299274Y-36746086D01*
X36293775Y-36741470D01*
X36283648Y-36748290D01*
X36279171Y-36752975D01*
X36262795Y-36765019D01*
X36238305Y-36776148D01*
X36210078Y-36784859D01*
X36182487Y-36789651D01*
X36170978Y-36790122D01*
X36146154Y-36787683D01*
X36121202Y-36782243D01*
X36115795Y-36780505D01*
X36082657Y-36763135D01*
X36052302Y-36737005D01*
X36028805Y-36705791D01*
X36024851Y-36698388D01*
X36019907Y-36687724D01*
X36016223Y-36677291D01*
X36013615Y-36665095D01*
X36011897Y-36649143D01*
X36010886Y-36627442D01*
X36010396Y-36597999D01*
X36010278Y-36567486D01*
X36108056Y-36567486D01*
X36112603Y-36609552D01*
X36122300Y-36641685D01*
X36137431Y-36664740D01*
X36158281Y-36679566D01*
X36164451Y-36682097D01*
X36197227Y-36689449D01*
X36228004Y-36685832D01*
X36248365Y-36677811D01*
X36266363Y-36667296D01*
X36279519Y-36654413D01*
X36288537Y-36637164D01*
X36294121Y-36613550D01*
X36296976Y-36581573D01*
X36297804Y-36539233D01*
X36297805Y-36537428D01*
X36297546Y-36502439D01*
X36296547Y-36477222D01*
X36294476Y-36459052D01*
X36291003Y-36445206D01*
X36285794Y-36432958D01*
X36284875Y-36431152D01*
X36266249Y-36407231D01*
X36241259Y-36391665D01*
X36212662Y-36384486D01*
X36183212Y-36385724D01*
X36155665Y-36395411D01*
X36132776Y-36413578D01*
X36122028Y-36429312D01*
X36115445Y-36448902D01*
X36110862Y-36479000D01*
X36108372Y-36514638D01*
X36108056Y-36567486D01*
X36010278Y-36567486D01*
X36010244Y-36558820D01*
X36010236Y-36540554D01*
G37*
G36*
X38361509Y-35498847D02*
G01*
X38385168Y-35502973D01*
X38395236Y-35505443D01*
X38435930Y-35519886D01*
X38474014Y-35540751D01*
X38504813Y-35565425D01*
X38507551Y-35568254D01*
X38517071Y-35579261D01*
X38518440Y-35586479D01*
X38512160Y-35595144D01*
X38510316Y-35597195D01*
X38497847Y-35609426D01*
X38481083Y-35624039D01*
X38475342Y-35628697D01*
X38452336Y-35646942D01*
X38423527Y-35626636D01*
X38404529Y-35614754D01*
X38386578Y-35608086D01*
X38364017Y-35604829D01*
X38352761Y-35604096D01*
X38312789Y-35605986D01*
X38280968Y-35616800D01*
X38256104Y-35637155D01*
X38239468Y-35662574D01*
X38231785Y-35679631D01*
X38227075Y-35696228D01*
X38224651Y-35716334D01*
X38223823Y-35743915D01*
X38223784Y-35752860D01*
X38224284Y-35783618D01*
X38226301Y-35805822D01*
X38230469Y-35823391D01*
X38237424Y-35840244D01*
X38238192Y-35841825D01*
X38258541Y-35870264D01*
X38286235Y-35890349D01*
X38318967Y-35901672D01*
X38354431Y-35903831D01*
X38390322Y-35896417D01*
X38424332Y-35879027D01*
X38429273Y-35875423D01*
X38451728Y-35858296D01*
X38475038Y-35876782D01*
X38492005Y-35891044D01*
X38506622Y-35904658D01*
X38510257Y-35908459D01*
X38518232Y-35918513D01*
X38517684Y-35925808D01*
X38510257Y-35934882D01*
X38485455Y-35956747D01*
X38453092Y-35977273D01*
X38418013Y-35993538D01*
X38406201Y-35997619D01*
X38377901Y-36005074D01*
X38352670Y-36007908D01*
X38324978Y-36006394D01*
X38300997Y-36002867D01*
X38263084Y-35991771D01*
X38224798Y-35972577D01*
X38191687Y-35948200D01*
X38185283Y-35942062D01*
X38158355Y-35906354D01*
X38138320Y-35862106D01*
X38125743Y-35811558D01*
X38121187Y-35756952D01*
X38124978Y-35702132D01*
X38138010Y-35645468D01*
X38159298Y-35598168D01*
X38188973Y-35560091D01*
X38227166Y-35531097D01*
X38274008Y-35511047D01*
X38312129Y-35502238D01*
X38339430Y-35498690D01*
X38361509Y-35498847D01*
G37*
G36*
X38556994Y-35671537D02*
G01*
X38574106Y-35618495D01*
X38599239Y-35574780D01*
X38632169Y-35540633D01*
X38672671Y-35516291D01*
X38715267Y-35502995D01*
X38764392Y-35499200D01*
X38812096Y-35507477D01*
X38856916Y-35527394D01*
X38894516Y-35555789D01*
X38918249Y-35581071D01*
X38935270Y-35607451D01*
X38946639Y-35637731D01*
X38953417Y-35674718D01*
X38956622Y-35720039D01*
X38959186Y-35790369D01*
X38651511Y-35790369D01*
X38651511Y-35807799D01*
X38655703Y-35829144D01*
X38666490Y-35853823D01*
X38681184Y-35876790D01*
X38696750Y-35892748D01*
X38716254Y-35901555D01*
X38743149Y-35906956D01*
X38772681Y-35908513D01*
X38800095Y-35905786D01*
X38809955Y-35903217D01*
X38830103Y-35894624D01*
X38851265Y-35882850D01*
X38854816Y-35880524D01*
X38877443Y-35865169D01*
X38911388Y-35894170D01*
X38928093Y-35909098D01*
X38940211Y-35921179D01*
X38945302Y-35927966D01*
X38945333Y-35928207D01*
X38940910Y-35934868D01*
X38929731Y-35945882D01*
X38923250Y-35951447D01*
X38877918Y-35980941D01*
X38827452Y-35999787D01*
X38774105Y-36007426D01*
X38720130Y-36003295D01*
X38717152Y-36002708D01*
X38668788Y-35987074D01*
X38628048Y-35961624D01*
X38595298Y-35926724D01*
X38570903Y-35882741D01*
X38558300Y-35843969D01*
X38554012Y-35817379D01*
X38551549Y-35783025D01*
X38550946Y-35745519D01*
X38552238Y-35709472D01*
X38552278Y-35709099D01*
X38651511Y-35709099D01*
X38859203Y-35709099D01*
X38854909Y-35685656D01*
X38843114Y-35649713D01*
X38823028Y-35622311D01*
X38795667Y-35604359D01*
X38762051Y-35596768D01*
X38755202Y-35596571D01*
X38726697Y-35599620D01*
X38702480Y-35607698D01*
X38701581Y-35608170D01*
X38682437Y-35623933D01*
X38665765Y-35647124D01*
X38654550Y-35672786D01*
X38651511Y-35691328D01*
X38651511Y-35709099D01*
X38552278Y-35709099D01*
X38555460Y-35679494D01*
X38556994Y-35671537D01*
G37*
G36*
X37396230Y-35674023D02*
G01*
X37396826Y-35725054D01*
X37397463Y-35765104D01*
X37398263Y-35795694D01*
X37399342Y-35818346D01*
X37400819Y-35834580D01*
X37402814Y-35845918D01*
X37405445Y-35853882D01*
X37408831Y-35859993D01*
X37410967Y-35862994D01*
X37432121Y-35886186D01*
X37454753Y-35899097D01*
X37482631Y-35903738D01*
X37487515Y-35903845D01*
X37522195Y-35899554D01*
X37549314Y-35885627D01*
X37570032Y-35861387D01*
X37574683Y-35852980D01*
X37578974Y-35844003D01*
X37582291Y-35834969D01*
X37584759Y-35824197D01*
X37586504Y-35810008D01*
X37587649Y-35790721D01*
X37588321Y-35764655D01*
X37588644Y-35730131D01*
X37588744Y-35685468D01*
X37588749Y-35664014D01*
X37588749Y-35502798D01*
X37688774Y-35502798D01*
X37688774Y-36002921D01*
X37588749Y-36002921D01*
X37588749Y-35953754D01*
X37557699Y-35974650D01*
X37516748Y-35995917D01*
X37474322Y-36006291D01*
X37432687Y-36005289D01*
X37423083Y-36003307D01*
X37379802Y-35986638D01*
X37343647Y-35959845D01*
X37315395Y-35923573D01*
X37306235Y-35906022D01*
X37302111Y-35896638D01*
X37298862Y-35887436D01*
X37296383Y-35876855D01*
X37294569Y-35863328D01*
X37293318Y-35845292D01*
X37292523Y-35821183D01*
X37292080Y-35789436D01*
X37291886Y-35748487D01*
X37291835Y-35696771D01*
X37291833Y-35690344D01*
X37291801Y-35505924D01*
X37343092Y-35504113D01*
X37394384Y-35502302D01*
X37396230Y-35674023D01*
G37*
G36*
X36898897Y-36459002D02*
G01*
X36913066Y-36502228D01*
X36926158Y-36541047D01*
X36937658Y-36574018D01*
X36947048Y-36599696D01*
X36953813Y-36616638D01*
X36957434Y-36623400D01*
X36957744Y-36623395D01*
X36960441Y-36616314D01*
X36965879Y-36598806D01*
X36973581Y-36572524D01*
X36983070Y-36539124D01*
X36993867Y-36500260D01*
X37004192Y-36462409D01*
X37015730Y-36419880D01*
X37026300Y-36381149D01*
X37035434Y-36347913D01*
X37042664Y-36321867D01*
X37047522Y-36304707D01*
X37049463Y-36298306D01*
X37056500Y-36293953D01*
X37074142Y-36291390D01*
X37103263Y-36290495D01*
X37105593Y-36290492D01*
X37132597Y-36290977D01*
X37148722Y-36292595D01*
X37155557Y-36295595D01*
X37155810Y-36298306D01*
X37153068Y-36306505D01*
X37147194Y-36324612D01*
X37138836Y-36350618D01*
X37128638Y-36382513D01*
X37117248Y-36418288D01*
X37117133Y-36418649D01*
X37103173Y-36462526D01*
X37086840Y-36513767D01*
X37069585Y-36567832D01*
X37052855Y-36620180D01*
X37040824Y-36657770D01*
X37000272Y-36784364D01*
X36910124Y-36784364D01*
X36860625Y-36618315D01*
X36847580Y-36574932D01*
X36835537Y-36535601D01*
X36824992Y-36501880D01*
X36816436Y-36475325D01*
X36810366Y-36457492D01*
X36807274Y-36449938D01*
X36807145Y-36449806D01*
X36804412Y-36454899D01*
X36798679Y-36470504D01*
X36790431Y-36495128D01*
X36780155Y-36527276D01*
X36768337Y-36565454D01*
X36755463Y-36608166D01*
X36753643Y-36614291D01*
X36704123Y-36781238D01*
X36658726Y-36783076D01*
X36632579Y-36783366D01*
X36617095Y-36781492D01*
X36610583Y-36777237D01*
X36610413Y-36776825D01*
X36607099Y-36766944D01*
X36600681Y-36747200D01*
X36591648Y-36719135D01*
X36580488Y-36684289D01*
X36567692Y-36644204D01*
X36553747Y-36600421D01*
X36539143Y-36554480D01*
X36524369Y-36507923D01*
X36509913Y-36462290D01*
X36496265Y-36419123D01*
X36483914Y-36379962D01*
X36473348Y-36346349D01*
X36465056Y-36319824D01*
X36459528Y-36301929D01*
X36457252Y-36294205D01*
X36457221Y-36294029D01*
X36462992Y-36292426D01*
X36478387Y-36291203D01*
X36500526Y-36290550D01*
X36510065Y-36290492D01*
X36562909Y-36290492D01*
X36568448Y-36310810D01*
X36571600Y-36322430D01*
X36577486Y-36344182D01*
X36585582Y-36374124D01*
X36595362Y-36410316D01*
X36606303Y-36450819D01*
X36614065Y-36479565D01*
X36625233Y-36520475D01*
X36635456Y-36557062D01*
X36644258Y-36587694D01*
X36651165Y-36610741D01*
X36655701Y-36624573D01*
X36657270Y-36627917D01*
X36659908Y-36622185D01*
X36665805Y-36606040D01*
X36674449Y-36580989D01*
X36685330Y-36548542D01*
X36697936Y-36510207D01*
X36711757Y-36467491D01*
X36713927Y-36460724D01*
X36767459Y-36293618D01*
X36805839Y-36291764D01*
X36844219Y-36289911D01*
X36898897Y-36459002D01*
G37*
G36*
X36801506Y-35694460D02*
G01*
X36806502Y-35655000D01*
X36814405Y-35623404D01*
X36816555Y-35617796D01*
X36839754Y-35577152D01*
X36870843Y-35544667D01*
X36908002Y-35520621D01*
X36949414Y-35505294D01*
X36993257Y-35498968D01*
X37037715Y-35501922D01*
X37080966Y-35514438D01*
X37121192Y-35536796D01*
X37153529Y-35565813D01*
X37171421Y-35587655D01*
X37184676Y-35609350D01*
X37193932Y-35633289D01*
X37199824Y-35661867D01*
X37202988Y-35697476D01*
X37204061Y-35742509D01*
X37204076Y-35755986D01*
X37203784Y-35793881D01*
X37202898Y-35821993D01*
X37201118Y-35843039D01*
X37198143Y-35859735D01*
X37193674Y-35874799D01*
X37189811Y-35885035D01*
X37171370Y-35918013D01*
X37144392Y-35949539D01*
X37112615Y-35975797D01*
X37086858Y-35990182D01*
X37052214Y-36000546D01*
X37011970Y-36005441D01*
X36972045Y-36004265D01*
X36962256Y-36002858D01*
X36916169Y-35988832D01*
X36875489Y-35964331D01*
X36842048Y-35930762D01*
X36819063Y-35892669D01*
X36809981Y-35864055D01*
X36803654Y-35826582D01*
X36800112Y-35783596D01*
X36799614Y-35752622D01*
X36901217Y-35752622D01*
X36902648Y-35798243D01*
X36907290Y-35833237D01*
X36915962Y-35859248D01*
X36929484Y-35877919D01*
X36948675Y-35890895D01*
X36974355Y-35899820D01*
X36974593Y-35899881D01*
X37011133Y-35903735D01*
X37044176Y-35896316D01*
X37063136Y-35885466D01*
X37079187Y-35871558D01*
X37090564Y-35856017D01*
X37098008Y-35836462D01*
X37102256Y-35810510D01*
X37104048Y-35775778D01*
X37104255Y-35752860D01*
X37103996Y-35718861D01*
X37102989Y-35694662D01*
X37100888Y-35677566D01*
X37097345Y-35664874D01*
X37092015Y-35653891D01*
X37091414Y-35652856D01*
X37068888Y-35625289D01*
X37040170Y-35608568D01*
X37005487Y-35602825D01*
X37004771Y-35602823D01*
X36968643Y-35607473D01*
X36940344Y-35621670D01*
X36919209Y-35645788D01*
X36915146Y-35653059D01*
X36908871Y-35666870D01*
X36904778Y-35681081D01*
X36902430Y-35698809D01*
X36901393Y-35723170D01*
X36901217Y-35752622D01*
X36799614Y-35752622D01*
X36799386Y-35738440D01*
X36801506Y-35694460D01*
G37*
X46845000Y-27605000D02*
X46845000Y-27005000D01*
X50395000Y-25805000D02*
X49795000Y-25805000D01*
X50945000Y-27005000D02*
X50945000Y-27605000D01*
X50095000Y-26105000D02*
X49795000Y-25805000D01*
X47495000Y-26305000D02*
X50295000Y-26305000D01*
X50295000Y-28305000D02*
X47495000Y-28305000D01*
X50095000Y-26105000D02*
X50395000Y-25805000D01*
X47545000Y-26305000D02*
G75*
G03*
X46845000Y-27005000I0J-700000D01*
G01*
X46845000Y-27605000D02*
G75*
G03*
X47545000Y-28305000I700000J0D01*
G01*
X50945000Y-27005000D02*
G75*
G03*
X50245000Y-26305000I-699999J1D01*
G01*
X50245000Y-28305000D02*
G75*
G03*
X50945000Y-27605000I1J699999D01*
G01*
X54212258Y-35037500D02*
X53737742Y-35037500D01*
X54212258Y-36082500D02*
X53737742Y-36082500D01*
X46655000Y-36310000D02*
X46055000Y-36310000D01*
X46055000Y-33510000D02*
X46655000Y-33510000D01*
X47355000Y-34210000D02*
X47355000Y-35610000D01*
X45355000Y-35610000D02*
X45355000Y-34210000D01*
X46055000Y-33510000D02*
G75*
G03*
X45355000Y-34210000I-1J-699999D01*
G01*
X45355000Y-35610000D02*
G75*
G03*
X46055000Y-36310000I700000J0D01*
G01*
X46655000Y-36310000D02*
G75*
G03*
X47355000Y-35610000I0J700000D01*
G01*
X47355000Y-34210000D02*
G75*
G03*
X46655000Y-33510000I-699999J1D01*
G01*
%LPC*%
D13*
X38862000Y-28448000D03*
D14*
X34379000Y-40005000D03*
X38267000Y-40005000D03*
X42155000Y-40005000D03*
X46043000Y-40005000D03*
X49931000Y-40005000D03*
X53819000Y-40005000D03*
X57707000Y-40005000D03*
X61595000Y-40005000D03*
X65483000Y-40005000D03*
X69371000Y-40005000D03*
D15*
X49340000Y-24765000D03*
X50990000Y-24765000D03*
D16*
X42672000Y-22352000D03*
D17*
X43942000Y-20320000D03*
D18*
X51140000Y-31115000D03*
X55540000Y-31115000D03*
D13*
X37592000Y-30480000D03*
D19*
X48450000Y-29845000D03*
X46800000Y-29845000D03*
D20*
X50195000Y-27305000D03*
D21*
X48895000Y-27305000D03*
D22*
X47595000Y-27305000D03*
D23*
X41402000Y-24384000D03*
D19*
X54800000Y-35560000D03*
X53150000Y-35560000D03*
D24*
X46355000Y-34260000D03*
D25*
X46355000Y-35560000D03*
D26*
X40132000Y-26416000D03*
M02*
